<svg width="161" height="36" viewBox="0 0 161 36" fill="none" xmlns="http://www.w3.org/2000/svg">
<path d="M48.3002 16.2587H55.3076V19.0984H45V1.94262H48.3002V16.2587Z" fill="#3C425F"/>
<path d="M62.7054 19.334C60.9599 19.334 59.5372 18.7606 58.4371 17.6137C57.3444 16.4669 56.798 14.939 56.798 13.0302V12.7003C56.798 11.4199 57.029 10.277 57.4911 9.27152C57.9531 8.2582 58.6058 7.48053 59.4492 6.93852C60.2999 6.38866 61.268 6.11373 62.3534 6.11373C63.9815 6.11373 65.2612 6.66359 66.1926 7.76332C67.1313 8.86305 67.6007 10.4223 67.6007 12.4411V13.8315H60.0212C60.1239 14.6641 60.4319 15.3318 60.9453 15.8345C61.466 16.3373 62.1223 16.5886 62.9144 16.5886C64.1391 16.5886 65.0962 16.1134 65.7856 15.1629L67.3477 17.0364C66.871 17.759 66.2256 18.3246 65.4115 18.7331C64.5975 19.1337 63.6954 19.334 62.7054 19.334ZM62.3424 8.8709C61.7117 8.8709 61.1983 9.0987 60.8023 9.5543C60.4136 10.0099 60.1642 10.6619 60.0542 11.5102H64.4765V11.2392C64.4618 10.4851 64.2711 9.90386 63.9045 9.49539C63.5378 9.07906 63.0171 8.8709 62.3424 8.8709Z" fill="#3C425F"/>
<path d="M73.4473 3.21516V6.34939H75.4825V8.84734H73.4473V15.21C73.4473 15.6814 73.5317 16.0191 73.7003 16.2234C73.869 16.4276 74.1917 16.5297 74.6684 16.5297C75.0204 16.5297 75.3321 16.5022 75.6035 16.4472V19.0277C74.9801 19.2319 74.3384 19.334 73.6783 19.334C71.4489 19.334 70.3121 18.1282 70.2681 15.7167V8.84734H68.53V6.34939H70.2681V3.21516H73.4473Z" fill="#3C425F"/>
<path d="M78.6559 7.20953L77.1598 6.27869C77.7905 5.21824 78.1169 4.12244 78.1389 2.99129V1H80.6691V2.82633C80.6691 3.5333 80.4857 4.29918 80.119 5.12398C79.7523 5.94877 79.2646 6.64395 78.6559 7.20953Z" fill="#3C425F"/>
<path d="M87.0327 15.5753C87.0327 15.159 86.8384 14.833 86.4497 14.5973C86.0683 14.3538 85.4523 14.1378 84.6016 13.9493C81.7707 13.313 80.3553 12.0248 80.3553 10.0845C80.3553 8.95338 80.7917 8.01076 81.6644 7.25666C82.5445 6.49471 83.6922 6.11373 85.1076 6.11373C86.6184 6.11373 87.8248 6.49471 88.7268 7.25666C89.6362 8.01861 90.0909 9.00837 90.0909 10.2259H86.9117C86.9117 9.7389 86.765 9.33829 86.4717 9.02408C86.1783 8.70201 85.72 8.54098 85.0966 8.54098C84.5612 8.54098 84.1469 8.67059 83.8535 8.92982C83.5602 9.18904 83.4135 9.51895 83.4135 9.91957C83.4135 10.2966 83.5785 10.603 83.9085 10.8386C84.2459 11.0664 84.8106 11.2667 85.6026 11.4395C86.3947 11.6045 87.0621 11.793 87.6048 12.0051C89.2842 12.665 90.1239 13.8079 90.1239 15.4339C90.1239 16.5965 89.6582 17.5391 88.7268 18.2618C87.7954 18.9766 86.5927 19.334 85.1186 19.334C84.1212 19.334 83.2338 19.1455 82.4564 18.7684C81.6864 18.3835 81.0814 17.8612 80.6413 17.2013C80.2013 16.5336 79.9813 15.8149 79.9813 15.0451H82.9955C83.0248 15.6499 83.2338 16.1134 83.6225 16.4355C84.0112 16.7575 84.5319 16.9185 85.1846 16.9185C85.7933 16.9185 86.2517 16.7968 86.5597 16.5533C86.8751 16.3019 87.0327 15.9759 87.0327 15.5753Z" fill="#3C425F"/>
<path d="M106.757 14.5973C106.757 13.9296 106.537 13.4191 106.096 13.0656C105.656 12.7042 104.864 12.3272 103.72 11.9344C102.576 11.5338 101.671 11.1411 101.003 10.7561C99.1844 9.70355 98.275 8.28569 98.275 6.50256C98.275 5.57565 98.517 4.75085 99.001 4.02818C99.4924 3.29764 100.193 2.72814 101.102 2.31967C102.019 1.9112 103.046 1.70697 104.182 1.70697C105.326 1.70697 106.346 1.93084 107.241 2.37859C108.135 2.81848 108.828 3.44296 109.32 4.25205C109.818 5.06113 110.068 5.98019 110.068 7.00922H106.768C106.768 6.2237 106.537 5.61492 106.074 5.18289C105.612 4.743 104.963 4.52305 104.127 4.52305C103.321 4.52305 102.694 4.70765 102.246 5.07684C101.799 5.43818 101.575 5.91735 101.575 6.51434C101.575 7.07206 101.836 7.53945 102.356 7.9165C102.884 8.29354 103.658 8.64703 104.677 8.97695C106.555 9.5818 107.923 10.332 108.781 11.2275C109.639 12.123 110.068 13.2384 110.068 14.5738C110.068 16.0584 109.543 17.2249 108.495 18.0733C107.446 18.9138 106.034 19.334 104.259 19.334C103.027 19.334 101.905 19.0944 100.893 18.6153C99.8811 18.1282 99.1074 17.4645 98.572 16.624C98.044 15.7835 97.78 14.8094 97.78 13.7018H101.091C101.091 15.5949 102.147 16.5415 104.259 16.5415C105.044 16.5415 105.656 16.3726 106.096 16.0348C106.537 15.6892 106.757 15.21 106.757 14.5973Z" fill="#3C425F"/>
<path d="M123.043 12.8417C123.043 14.8055 122.625 16.3805 121.789 17.5666C120.96 18.7449 119.838 19.334 118.423 19.334C117.22 19.334 116.248 18.8863 115.507 17.9908V24H112.328V6.34939H115.276L115.386 7.59836C116.156 6.60861 117.161 6.11373 118.401 6.11373C119.867 6.11373 121.008 6.69501 121.822 7.85758C122.636 9.02015 123.043 10.6226 123.043 12.665V12.8417ZM119.864 12.5943C119.864 11.4081 119.666 10.493 119.27 9.84887C118.881 9.20475 118.313 8.88268 117.564 8.88268C116.567 8.88268 115.881 9.29115 115.507 10.1081V15.3279C115.896 16.1684 116.589 16.5886 117.586 16.5886C119.105 16.5886 119.864 15.2572 119.864 12.5943Z" fill="#3C425F"/>
<path d="M130.727 19.334C128.981 19.334 127.558 18.7606 126.458 17.6137C125.366 16.4669 124.819 14.939 124.819 13.0302V12.7003C124.819 11.4199 125.05 10.277 125.512 9.27152C125.974 8.2582 126.627 7.48053 127.47 6.93852C128.321 6.38866 129.289 6.11373 130.375 6.11373C132.003 6.11373 133.282 6.66359 134.214 7.76332C135.153 8.86305 135.622 10.4223 135.622 12.4411V13.8315H128.042C128.145 14.6641 128.453 15.3318 128.966 15.8345C129.487 16.3373 130.144 16.5886 130.936 16.5886C132.16 16.5886 133.117 16.1134 133.807 15.1629L135.369 17.0364C134.892 17.759 134.247 18.3246 133.433 18.7331C132.619 19.1337 131.717 19.334 130.727 19.334ZM130.364 8.8709C129.733 8.8709 129.219 9.0987 128.823 9.5543C128.435 10.0099 128.185 10.6619 128.075 11.5102H132.498V11.2392C132.483 10.4851 132.292 9.90386 131.926 9.49539C131.559 9.07906 131.038 8.8709 130.364 8.8709Z" fill="#3C425F"/>
<path d="M144.56 19.0984C144.413 18.792 144.307 18.411 144.241 17.9554C143.471 18.8745 142.47 19.334 141.237 19.334C140.071 19.334 139.103 18.9727 138.333 18.25C137.571 17.5273 137.189 16.6161 137.189 15.5164C137.189 14.1653 137.655 13.1284 138.586 12.4057C139.525 11.6831 140.878 11.3178 142.646 11.3099H144.109V10.5794C144.109 9.99027 143.966 9.51895 143.68 9.16547C143.401 8.81199 142.957 8.63525 142.349 8.63525C141.813 8.63525 141.392 8.77271 141.083 9.04764C140.783 9.32257 140.632 9.69962 140.632 10.1788H137.453C137.453 9.4404 137.666 8.757 138.091 8.12859C138.517 7.50017 139.118 7.00922 139.895 6.65574C140.673 6.2944 141.546 6.11373 142.514 6.11373C143.98 6.11373 145.143 6.51042 146.001 7.30379C146.866 8.08931 147.299 9.19689 147.299 10.6265V16.1527C147.306 17.3624 147.464 18.2775 147.772 18.8981V19.0984H144.56ZM141.931 16.73C142.4 16.73 142.833 16.62 143.229 16.4001C143.625 16.1723 143.918 15.8699 144.109 15.4928V13.3012H142.921C141.329 13.3012 140.482 13.8904 140.379 15.0686L140.368 15.269C140.368 15.6931 140.508 16.0427 140.786 16.3176C141.065 16.5926 141.447 16.73 141.931 16.73Z" fill="#3C425F"/>
<path d="M154.29 13.9846L153.146 15.21V19.0984H149.966V1H153.146V11.0272L153.762 10.1788L156.809 6.34939H160.626L156.325 11.6634L161 19.0984H157.348L154.29 13.9846Z" fill="#3C425F"/>
<path d="M49.7026 26.1105V32.0881H49.0403V29.6794H47.1857L45.7286 32.0881H45L46.5013 29.5965C46.0929 29.4897 45.7746 29.2834 45.5464 28.9777C45.322 28.672 45.2097 28.3111 45.2097 27.8949C45.2097 27.3535 45.4029 26.9208 45.7893 26.5967C46.1793 26.2725 46.7055 26.1105 47.3679 26.1105H49.7026ZM45.8721 27.906C45.8721 28.2559 45.9825 28.5431 46.2033 28.7678C46.4277 28.9925 46.7386 29.1085 47.1361 29.1158H49.0403V26.674H47.3513C46.8914 26.674 46.5289 26.7845 46.264 27.0055C46.0027 27.2265 45.8721 27.5266 45.8721 27.906Z" fill="#3C425F"/>
<path d="M56.963 27.6905C56.963 27.3296 56.8287 27.0515 56.5601 26.8563C56.2915 26.6611 55.9216 26.5635 55.4506 26.5635C55.0238 26.5635 54.6577 26.674 54.3523 26.895C54.0505 27.1123 53.8997 27.3885 53.8997 27.7237H53.2428C53.2428 27.2265 53.4544 26.8158 53.8776 26.4917C54.3044 26.1676 54.8288 26.0055 55.4506 26.0055C56.1351 26.0055 56.6686 26.1528 57.0513 26.4475C57.434 26.7421 57.6253 27.1602 57.6253 27.7016C57.6253 27.9888 57.537 28.2485 57.3604 28.4805C57.1838 28.7126 56.9262 28.893 56.5877 29.0219C57.353 29.2319 57.7357 29.707 57.7357 30.4473C57.7357 30.985 57.5278 31.4104 57.112 31.7234C56.6962 32.0365 56.1443 32.193 55.4562 32.193C54.7901 32.193 54.2382 32.0254 53.8003 31.6903C53.3624 31.3551 53.1435 30.9169 53.1435 30.3754H53.8058C53.8058 30.7364 53.9641 31.0384 54.2805 31.2815C54.6006 31.5209 54.9925 31.6406 55.4562 31.6406C55.9603 31.6406 56.354 31.5356 56.6373 31.3257C56.9244 31.1121 57.0679 30.8229 57.0679 30.4583C57.0679 30.0569 56.9372 29.7677 56.676 29.591C56.4147 29.4142 56.0155 29.3258 55.4782 29.3258H54.5675V28.7512H55.5886C56.5049 28.7291 56.963 28.3756 56.963 27.6905Z" fill="#3C425F"/>
<path d="M61.8996 28.2816H63.6217C64.0633 28.2816 64.4497 28.3627 64.7808 28.5247C65.1157 28.6831 65.3677 28.9041 65.537 29.1877C65.71 29.4713 65.7964 29.8009 65.7964 30.1766C65.7964 30.7548 65.5977 31.2189 65.2003 31.5688C64.8066 31.915 64.273 32.0881 63.5997 32.0881H61.2428V26.1105H61.8996V28.2816ZM61.8996 28.8451V31.5301H63.6107C64.0854 31.5301 64.457 31.4104 64.7256 31.171C64.9979 30.9316 65.1341 30.6038 65.1341 30.1876C65.1341 29.7898 65.0016 29.4694 64.7367 29.2263C64.4754 28.9796 64.1167 28.8525 63.6604 28.8451H61.8996ZM67.8221 32.0881H67.1597V26.1105H67.8221V32.0881Z" fill="#3C425F"/>
<path d="M73.261 29.3479H72.3448V32.0881H71.6769V26.1105H72.3448V28.7623H73.25L75.4412 26.1105H76.2747L73.824 29.0109L76.5451 32.0881H75.673L73.261 29.3479Z" fill="#3C425F"/>
<path d="M78.9925 29.0109C78.9925 28.4363 79.1029 27.9189 79.3236 27.4585C79.5481 26.9981 79.8627 26.6408 80.2675 26.3867C80.6759 26.1289 81.1377 26 81.6529 26C82.4477 26 83.0916 26.2799 83.5847 26.8397C84.0778 27.3959 84.3243 28.1343 84.3243 29.0551V29.1932C84.3243 29.7714 84.2121 30.2926 83.9876 30.7566C83.7669 31.217 83.4541 31.5724 83.0493 31.8229C82.6446 32.0733 82.1828 32.1985 81.6639 32.1985C80.8728 32.1985 80.2288 31.9205 79.7321 31.3643C79.239 30.8045 78.9925 30.0642 78.9925 29.1435V29.0109ZM79.6548 29.1932C79.6548 29.9077 79.8388 30.4951 80.2068 30.9555C80.5784 31.4122 81.0641 31.6406 81.6639 31.6406C82.26 31.6406 82.7421 31.4122 83.11 30.9555C83.4817 30.4951 83.6675 29.8893 83.6675 29.1379V29.0109C83.6675 28.5542 83.5829 28.1362 83.4136 27.7568C83.2443 27.3775 83.007 27.0847 82.7016 26.8784C82.3962 26.6685 82.0466 26.5635 81.6529 26.5635C81.0641 26.5635 80.5839 26.7955 80.2123 27.2596C79.8406 27.72 79.6548 28.324 79.6548 29.0717V29.1932Z" fill="#3C425F"/>
<path d="M87.7431 32.0881V26.1105H89.9344C90.6924 26.1105 91.2738 26.2468 91.6785 26.5193C92.0833 26.7882 92.2857 27.1841 92.2857 27.7071C92.2857 28.0054 92.1955 28.2724 92.0152 28.5081C91.8349 28.7402 91.5718 28.9096 91.2259 29.0164C91.616 29.0901 91.9287 29.2576 92.1642 29.5191C92.4034 29.7806 92.523 30.0845 92.523 30.4307C92.523 30.9574 92.328 31.3662 91.9379 31.6571C91.5516 31.9444 91.0033 32.0881 90.2931 32.0881H87.7431ZM88.3999 29.3368V31.5356H90.3152C90.812 31.5356 91.1946 31.4398 91.4633 31.2483C91.7319 31.0568 91.8662 30.7806 91.8662 30.4196C91.8662 30.0882 91.7319 29.8248 91.4633 29.6296C91.1946 29.4344 90.812 29.3368 90.3152 29.3368H88.3999ZM88.3999 28.7844H90.0723C91.11 28.7696 91.6288 28.4161 91.6288 27.7237C91.6288 27.359 91.4853 27.0939 91.1983 26.9281C90.915 26.7587 90.4937 26.674 89.9344 26.674H88.3999V28.7844Z" fill="#3C425F"/>
<path d="M99.7447 32.0881C99.6785 31.9002 99.6362 31.6222 99.6178 31.2539C99.386 31.5559 99.0898 31.7897 98.7292 31.9555C98.3722 32.1175 97.9932 32.1985 97.5921 32.1985C97.0181 32.1985 96.5526 32.0383 96.1957 31.7179C95.8424 31.3975 95.6658 30.9924 95.6658 30.5025C95.6658 29.9206 95.9068 29.4602 96.3889 29.1214C96.8746 28.7825 97.5498 28.6131 98.4145 28.6131H99.6123V27.9336C99.6123 27.5064 99.4798 27.1712 99.2149 26.9281C98.9536 26.6814 98.5709 26.558 98.0668 26.558C97.6068 26.558 97.226 26.6758 96.9243 26.9116C96.6225 27.1473 96.4717 27.4309 96.4717 27.7623L95.8093 27.7568C95.8093 27.2817 96.0301 26.871 96.4717 26.5248C96.9132 26.1749 97.456 26 98.0999 26C98.7659 26 99.2903 26.1676 99.673 26.5027C100.059 26.8342 100.258 27.2983 100.269 27.8949V30.7235C100.269 31.3017 100.33 31.7345 100.451 32.0218V32.0881H99.7447ZM97.6694 31.6129C98.111 31.6129 98.5047 31.5061 98.8506 31.2925C99.2001 31.0789 99.454 30.7935 99.6123 30.4362V29.1214H98.4311C97.7724 29.1287 97.2573 29.2503 96.8856 29.486C96.514 29.718 96.3282 30.0384 96.3282 30.4473C96.3282 30.7824 96.4514 31.0605 96.698 31.2815C96.9482 31.5025 97.272 31.6129 97.6694 31.6129Z" fill="#3C425F"/>
<path d="M108.368 26.1105V32.0881H107.706V29.6794H105.852L104.394 32.0881H103.666L105.167 29.5965C104.759 29.4897 104.44 29.2834 104.212 28.9777C103.988 28.672 103.876 28.3111 103.876 27.8949C103.876 27.3535 104.069 26.9208 104.455 26.5967C104.845 26.2725 105.371 26.1105 106.034 26.1105H108.368ZM104.538 27.906C104.538 28.2559 104.648 28.5431 104.869 28.7678C105.094 28.9925 105.404 29.1085 105.802 29.1158H107.706V26.674H106.017C105.557 26.674 105.195 26.7845 104.93 27.0055C104.669 27.2265 104.538 27.5266 104.538 27.906Z" fill="#3C425F"/>
<path d="M120.662 26.1105V31.5301H123.317V26.1105H123.98V31.5301H126.612V26.1105H127.275V32.0881H120V26.1105H120.662Z" fill="#3C425F"/>
<path d="M132.532 29.3479H131.615V32.0881H130.947V26.1105H131.615V28.7623H132.52L134.712 26.1105H135.545L133.094 29.0109L135.816 32.0881H134.944L132.532 29.3479Z" fill="#3C425F"/>
<path d="M138.263 29.0109C138.263 28.4363 138.373 27.9189 138.594 27.4585C138.819 26.9981 139.133 26.6408 139.538 26.3867C139.946 26.1289 140.408 26 140.923 26C141.718 26 142.362 26.2799 142.855 26.8397C143.348 27.3959 143.595 28.1343 143.595 29.0551V29.1932C143.595 29.7714 143.483 30.2926 143.258 30.7566C143.037 31.217 142.725 31.5724 142.32 31.8229C141.915 32.0733 141.453 32.1985 140.934 32.1985C140.143 32.1985 139.499 31.9205 139.003 31.3643C138.51 30.8045 138.263 30.0642 138.263 29.1435V29.0109ZM138.925 29.1932C138.925 29.9077 139.109 30.4951 139.477 30.9555C139.849 31.4122 140.335 31.6406 140.934 31.6406C141.531 31.6406 142.013 31.4122 142.381 30.9555C142.752 30.4951 142.938 29.8893 142.938 29.1379V29.0109C142.938 28.5542 142.853 28.1362 142.684 27.7568C142.515 27.3775 142.277 27.0847 141.972 26.8784C141.667 26.6685 141.317 26.5635 140.923 26.5635C140.335 26.5635 139.854 26.7955 139.483 27.2596C139.111 27.72 138.925 28.324 138.925 29.0717V29.1932Z" fill="#3C425F"/>
<path d="M151.446 26.1105V32.0881H150.783V26.6795H148.338L148.233 28.917C148.189 29.7456 148.106 30.3791 147.985 30.8174C147.864 31.252 147.683 31.5724 147.444 31.7787C147.205 31.9849 146.887 32.0881 146.489 32.0881H146.235V31.5025L146.44 31.4914C146.819 31.484 147.091 31.2999 147.256 30.939C147.422 30.578 147.531 29.9335 147.582 29.0054L147.704 26.1105H151.446Z" fill="#3C425F"/>
<path d="M158.971 32.0881C158.905 31.9002 158.863 31.6222 158.844 31.2539C158.612 31.5559 158.316 31.7897 157.955 31.9555C157.599 32.1175 157.22 32.1985 156.818 32.1985C156.244 32.1985 155.779 32.0383 155.422 31.7179C155.069 31.3975 154.892 30.9924 154.892 30.5025C154.892 29.9206 155.133 29.4602 155.615 29.1214C156.101 28.7825 156.776 28.6131 157.641 28.6131H158.839V27.9336C158.839 27.5064 158.706 27.1712 158.441 26.9281C158.18 26.6814 157.797 26.558 157.293 26.558C156.833 26.558 156.452 26.6758 156.151 26.9116C155.849 27.1473 155.698 27.4309 155.698 27.7623L155.036 27.7568C155.036 27.2817 155.256 26.871 155.698 26.5248C156.14 26.1749 156.682 26 157.326 26C157.992 26 158.517 26.1676 158.899 26.5027C159.286 26.8342 159.484 27.2983 159.495 27.8949V30.7235C159.495 31.3017 159.556 31.7345 159.678 32.0218V32.0881H158.971ZM156.896 31.6129C157.337 31.6129 157.731 31.5061 158.077 31.2925C158.426 31.0789 158.68 30.7935 158.839 30.4362V29.1214H157.657C156.999 29.1287 156.484 29.2503 156.112 29.486C155.74 29.718 155.554 30.0384 155.554 30.4473C155.554 30.7824 155.678 31.0605 155.924 31.2815C156.175 31.5025 156.498 31.6129 156.896 31.6129Z" fill="#3C425F"/>
<path fill-rule="evenodd" clip-rule="evenodd" d="M0 8C0 3.58172 3.58172 0 8 0H25C29.4183 0 33 3.58172 33 8V23C33 27.4183 29.4183 31 25 31H15L5 36V30.4185C2.06817 29.2317 0 26.3574 0 23V8ZM24.9999 12C24.9999 9.79086 23.2091 8 20.9999 8H11.9999C9.7908 8 7.99994 9.79086 7.99994 12V18C7.99994 20.2091 9.7908 22 11.9999 22H13.9999L21.9999 26V21.874C23.7252 21.4299 24.9999 19.8638 24.9999 18V12Z" fill="url(#paint0_linear)"/>
<defs>
<linearGradient id="paint0_linear" x1="33" y1="0" x2="5.85209e-07" y2="36" gradientUnits="userSpaceOnUse">
<stop stop-color="#6F85EF"/>
<stop offset="1" stop-color="#0DE1D4"/>
</linearGradient>
</defs>
</svg>
