<svg width="200" height="40" viewBox="0 0 200 40" fill="none" xmlns="http://www.w3.org/2000/svg">
<path d="M60.6338 15H59.7861V10.2285H54.0986V15H53.2578V5.04688H54.0986V9.51758H59.7861V5.04688H60.6338V15ZM65.8428 15.1367C65.2139 15.1367 64.6442 14.9818 64.1338 14.6719C63.6279 14.362 63.2337 13.9313 62.9512 13.3799C62.6686 12.8239 62.5273 12.2018 62.5273 11.5137V11.2197C62.5273 10.5088 62.6641 9.86849 62.9375 9.29883C63.2155 8.72917 63.6006 8.28255 64.0928 7.95898C64.585 7.63086 65.1182 7.4668 65.6924 7.4668C66.5902 7.4668 67.3011 7.77441 67.8252 8.38965C68.3538 9.00033 68.6182 9.83659 68.6182 10.8984V11.3564H63.3408V11.5137C63.3408 12.3522 63.5801 13.0518 64.0586 13.6123C64.5417 14.1683 65.1478 14.4463 65.877 14.4463C66.3145 14.4463 66.6995 14.3665 67.0322 14.207C67.3695 14.0475 67.6748 13.7923 67.9482 13.4414L68.4609 13.8311C67.8594 14.7015 66.9867 15.1367 65.8428 15.1367ZM65.6924 8.16406C65.0771 8.16406 64.5576 8.38965 64.1338 8.84082C63.7145 9.29199 63.4593 9.89811 63.3682 10.6592H67.8047V10.5703C67.7819 9.85938 67.5791 9.2806 67.1963 8.83398C66.8135 8.38737 66.3122 8.16406 65.6924 8.16406ZM69.7598 11.1924C69.7598 10.4814 69.8965 9.84115 70.1699 9.27148C70.4479 8.70182 70.8376 8.25977 71.3389 7.94531C71.8447 7.6263 72.4167 7.4668 73.0547 7.4668C74.0391 7.4668 74.8366 7.81315 75.4473 8.50586C76.0579 9.19401 76.3633 10.1077 76.3633 11.2471V11.418C76.3633 12.1335 76.2243 12.7783 75.9463 13.3525C75.6729 13.9222 75.2855 14.362 74.7842 14.6719C74.2829 14.9818 73.7109 15.1367 73.0684 15.1367C72.0885 15.1367 71.291 14.7926 70.6758 14.1045C70.0651 13.4118 69.7598 12.4958 69.7598 11.3564V11.1924ZM70.5801 11.418C70.5801 12.3021 70.8079 13.029 71.2637 13.5986C71.724 14.1637 72.3255 14.4463 73.0684 14.4463C73.8066 14.4463 74.4036 14.1637 74.8594 13.5986C75.3197 13.029 75.5498 12.2793 75.5498 11.3496V11.1924C75.5498 10.6273 75.445 10.11 75.2354 9.64062C75.0257 9.17122 74.7318 8.80892 74.3535 8.55371C73.9753 8.29395 73.5423 8.16406 73.0547 8.16406C72.3255 8.16406 71.7308 8.45117 71.2705 9.02539C70.8102 9.59505 70.5801 10.3424 70.5801 11.2676V11.418ZM83.7393 15H82.9189V8.30762H78.9336V15H78.1133V7.60352H83.7393V15ZM85.4824 11.1924C85.4824 10.4814 85.6191 9.84115 85.8926 9.27148C86.1706 8.70182 86.5602 8.25977 87.0615 7.94531C87.5674 7.6263 88.1393 7.4668 88.7773 7.4668C89.7617 7.4668 90.5592 7.81315 91.1699 8.50586C91.7806 9.19401 92.0859 10.1077 92.0859 11.2471V11.418C92.0859 12.1335 91.9469 12.7783 91.6689 13.3525C91.3955 13.9222 91.0081 14.362 90.5068 14.6719C90.0055 14.9818 89.4336 15.1367 88.791 15.1367C87.8112 15.1367 87.0137 14.7926 86.3984 14.1045C85.7878 13.4118 85.4824 12.4958 85.4824 11.3564V11.1924ZM86.3027 11.418C86.3027 12.3021 86.5306 13.029 86.9863 13.5986C87.4466 14.1637 88.0482 14.4463 88.791 14.4463C89.5293 14.4463 90.1263 14.1637 90.582 13.5986C91.0423 13.029 91.2725 12.2793 91.2725 11.3496V11.1924C91.2725 10.6273 91.1676 10.11 90.958 9.64062C90.7484 9.17122 90.4544 8.80892 90.0762 8.55371C89.6979 8.29395 89.265 8.16406 88.7773 8.16406C88.0482 8.16406 87.4535 8.45117 86.9932 9.02539C86.5329 9.59505 86.3027 10.3424 86.3027 11.2676V11.418ZM98.1152 9.55859C98.1152 9.11198 97.9489 8.7679 97.6162 8.52637C97.2835 8.28483 96.8255 8.16406 96.2422 8.16406C95.7135 8.16406 95.2601 8.30078 94.8818 8.57422C94.5081 8.8431 94.3213 9.1849 94.3213 9.59961H93.5078C93.5078 8.98438 93.7699 8.47624 94.2939 8.0752C94.8226 7.67415 95.472 7.47363 96.2422 7.47363C97.0898 7.47363 97.7507 7.65592 98.2246 8.02051C98.6986 8.38509 98.9355 8.90234 98.9355 9.57227C98.9355 9.92773 98.8262 10.249 98.6074 10.5361C98.3887 10.8232 98.0697 11.0465 97.6504 11.2061C98.5983 11.4658 99.0723 12.0537 99.0723 12.9697C99.0723 13.6351 98.8148 14.1615 98.2998 14.5488C97.7848 14.9362 97.1012 15.1299 96.249 15.1299C95.4242 15.1299 94.7406 14.9225 94.1982 14.5078C93.6559 14.0931 93.3848 13.5508 93.3848 12.8809H94.2051C94.2051 13.3275 94.401 13.7012 94.793 14.002C95.1895 14.2982 95.6748 14.4463 96.249 14.4463C96.8734 14.4463 97.361 14.3164 97.7119 14.0566C98.0674 13.7923 98.2451 13.4346 98.2451 12.9834C98.2451 12.4867 98.0833 12.1289 97.7598 11.9102C97.4362 11.6914 96.9417 11.582 96.2764 11.582H95.1484V10.8711H96.4131C97.5479 10.8438 98.1152 10.4062 98.1152 9.55859ZM106.558 15H105.737V11.6094H101.752V15H100.932V7.60352H101.752V10.9189H105.737V7.60352H106.558V15ZM113.421 15C113.339 14.7676 113.286 14.4235 113.264 13.9678C112.977 14.3415 112.61 14.6309 112.163 14.8359C111.721 15.0365 111.252 15.1367 110.755 15.1367C110.044 15.1367 109.467 14.9385 109.025 14.542C108.588 14.1455 108.369 13.6442 108.369 13.0381C108.369 12.318 108.668 11.7484 109.265 11.3291C109.866 10.9098 110.702 10.7002 111.773 10.7002H113.257V9.85938C113.257 9.33073 113.093 8.91602 112.765 8.61523C112.441 8.3099 111.967 8.15723 111.343 8.15723C110.773 8.15723 110.301 8.30306 109.928 8.59473C109.554 8.88639 109.367 9.2373 109.367 9.64746L108.547 9.64062C108.547 9.05273 108.82 8.5446 109.367 8.11621C109.914 7.68327 110.586 7.4668 111.384 7.4668C112.209 7.4668 112.858 7.67415 113.332 8.08887C113.811 8.49902 114.057 9.07324 114.07 9.81152V13.3115C114.07 14.027 114.146 14.5625 114.296 14.918V15H113.421ZM110.851 14.4121C111.397 14.4121 111.885 14.2799 112.313 14.0156C112.746 13.7513 113.061 13.3981 113.257 12.9561V11.3291H111.794C110.978 11.3382 110.34 11.4886 109.88 11.7803C109.42 12.0674 109.189 12.4639 109.189 12.9697C109.189 13.3844 109.342 13.7285 109.647 14.002C109.957 14.2754 110.358 14.4121 110.851 14.4121ZM121.938 15H121.118V11.6094H117.133V15H116.312V7.60352H117.133V10.9189H121.118V7.60352H121.938V15ZM129.813 15H128.993V11.6094H125.008V15H124.188V7.60352H125.008V10.9189H128.993V7.60352H129.813V15ZM132.91 10.29H135.043C135.59 10.29 136.068 10.3903 136.479 10.5908C136.893 10.7868 137.205 11.0602 137.415 11.4111C137.629 11.762 137.736 12.1699 137.736 12.6348C137.736 13.3503 137.49 13.9245 136.998 14.3574C136.51 14.7858 135.85 15 135.016 15H132.097V7.60352H132.91V10.29ZM132.91 10.9873V14.3096H135.029C135.617 14.3096 136.077 14.1615 136.41 13.8652C136.747 13.569 136.916 13.1634 136.916 12.6484C136.916 12.1562 136.752 11.7598 136.424 11.459C136.1 11.1536 135.656 10.9964 135.091 10.9873H132.91ZM140.245 15H139.425V7.60352H140.245V15ZM147.382 7.60352H148.202V15H147.382V8.92285L143.39 15H142.576V7.60352H143.39V13.6875L147.382 7.60352ZM147.341 4.9375C147.341 5.46159 147.161 5.88542 146.801 6.20898C146.445 6.53255 145.967 6.69434 145.365 6.69434C144.773 6.69434 144.294 6.53483 143.93 6.21582C143.57 5.89225 143.39 5.46615 143.39 4.9375H144.087C144.087 5.31576 144.199 5.60514 144.422 5.80566C144.65 6.00618 144.964 6.10645 145.365 6.10645C145.766 6.10645 146.078 6.00163 146.302 5.79199C146.53 5.58236 146.644 5.29753 146.644 4.9375H147.341ZM159.488 10.2285H154.833V14.2891H160.186V15H153.992V5.04688H160.151V5.76465H154.833V9.51758H159.488V10.2285ZM167.452 15H166.632V11.6094H162.646V15H161.826V7.60352H162.646V10.9189H166.632V7.60352H167.452V15ZM169.195 11.1924C169.195 10.4814 169.332 9.84115 169.605 9.27148C169.883 8.70182 170.273 8.25977 170.774 7.94531C171.28 7.6263 171.852 7.4668 172.49 7.4668C173.475 7.4668 174.272 7.81315 174.883 8.50586C175.493 9.19401 175.799 10.1077 175.799 11.2471V11.418C175.799 12.1335 175.66 12.7783 175.382 13.3525C175.108 13.9222 174.721 14.362 174.22 14.6719C173.718 14.9818 173.146 15.1367 172.504 15.1367C171.524 15.1367 170.727 14.7926 170.111 14.1045C169.501 13.4118 169.195 12.4958 169.195 11.3564V11.1924ZM170.016 11.418C170.016 12.3021 170.243 13.029 170.699 13.5986C171.16 14.1637 171.761 14.4463 172.504 14.4463C173.242 14.4463 173.839 14.1637 174.295 13.5986C174.755 13.029 174.985 12.2793 174.985 11.3496V11.1924C174.985 10.6273 174.881 10.11 174.671 9.64062C174.461 9.17122 174.167 8.80892 173.789 8.55371C173.411 8.29395 172.978 8.16406 172.49 8.16406C171.761 8.16406 171.166 8.45117 170.706 9.02539C170.246 9.59505 170.016 10.3424 170.016 11.2676V11.418ZM182.655 8.30078H179.962V15H179.142V8.30078H176.551V7.60352H182.655V8.30078ZM187.83 9.90039L188.315 5.04688H193.292V5.80566H189.02L188.671 9.16895C189.204 8.80436 189.828 8.62207 190.544 8.62207C191.442 8.62207 192.157 8.91374 192.69 9.49707C193.224 10.0804 193.49 10.8574 193.49 11.8281C193.49 12.8763 193.23 13.6898 192.711 14.2686C192.191 14.8473 191.46 15.1367 190.517 15.1367C189.651 15.1367 188.949 14.8952 188.411 14.4121C187.873 13.929 187.566 13.2523 187.488 12.3818H188.274C188.352 13.0609 188.582 13.5758 188.965 13.9268C189.348 14.2731 189.865 14.4463 190.517 14.4463C191.228 14.4463 191.763 14.2207 192.123 13.7695C192.488 13.3184 192.67 12.6758 192.67 11.8418C192.67 11.1126 192.467 10.5179 192.062 10.0576C191.656 9.59733 191.102 9.36719 190.4 9.36719C190.013 9.36719 189.676 9.41732 189.389 9.51758C189.102 9.61328 188.799 9.80241 188.479 10.085L187.83 9.90039Z" fill="#3C425F"/>
<path opacity="0.5" d="M54.1055 34.2891H59.0205V35H53.2578V25.0469H54.1055V34.2891ZM63.3135 35.1367C62.6846 35.1367 62.1149 34.9818 61.6045 34.6719C61.0986 34.362 60.7044 33.9313 60.4219 33.3799C60.1393 32.8239 59.998 32.2018 59.998 31.5137V31.2197C59.998 30.5088 60.1348 29.8685 60.4082 29.2988C60.6862 28.7292 61.0713 28.2826 61.5635 27.959C62.0557 27.6309 62.5889 27.4668 63.1631 27.4668C64.0609 27.4668 64.7718 27.7744 65.2959 28.3896C65.8245 29.0003 66.0889 29.8366 66.0889 30.8984V31.3564H60.8115V31.5137C60.8115 32.3522 61.0508 33.0518 61.5293 33.6123C62.0124 34.1683 62.6185 34.4463 63.3477 34.4463C63.7852 34.4463 64.1702 34.3665 64.5029 34.207C64.8402 34.0475 65.1455 33.7923 65.4189 33.4414L65.9316 33.8311C65.3301 34.7015 64.4574 35.1367 63.3135 35.1367ZM63.1631 28.1641C62.5479 28.1641 62.0283 28.3896 61.6045 28.8408C61.1852 29.292 60.93 29.8981 60.8389 30.6592H65.2754V30.5703C65.2526 29.8594 65.0498 29.2806 64.667 28.834C64.2842 28.3874 63.7829 28.1641 63.1631 28.1641ZM76.7598 30.3516H72.1182V35H71.2773V25.0469H77.4434V25.7646H72.1182V29.6338H76.7598V30.3516ZM82.2012 28.3008C82.028 28.2689 81.8434 28.2529 81.6475 28.2529C81.137 28.2529 80.7041 28.3965 80.3486 28.6836C79.9977 28.9661 79.7471 29.3786 79.5967 29.9209V35H78.7832V27.6035H79.583L79.5967 28.7793C80.0296 27.9043 80.7246 27.4668 81.6816 27.4668C81.9095 27.4668 82.0895 27.4964 82.2217 27.5557L82.2012 28.3008ZM87.8955 35C87.8135 34.7676 87.7611 34.4235 87.7383 33.9678C87.4512 34.3415 87.0843 34.6309 86.6377 34.8359C86.1956 35.0365 85.7262 35.1367 85.2295 35.1367C84.5186 35.1367 83.9421 34.9385 83.5 34.542C83.0625 34.1455 82.8438 33.6442 82.8438 33.0381C82.8438 32.318 83.1423 31.7484 83.7393 31.3291C84.3408 30.9098 85.1771 30.7002 86.248 30.7002H87.7314V29.8594C87.7314 29.3307 87.5674 28.916 87.2393 28.6152C86.9157 28.3099 86.4417 28.1572 85.8174 28.1572C85.2477 28.1572 84.776 28.3031 84.4023 28.5947C84.0286 28.8864 83.8418 29.2373 83.8418 29.6475L83.0215 29.6406C83.0215 29.0527 83.2949 28.5446 83.8418 28.1162C84.3887 27.6833 85.0609 27.4668 85.8584 27.4668C86.6833 27.4668 87.3327 27.6742 87.8066 28.0889C88.2852 28.499 88.5312 29.0732 88.5449 29.8115V33.3115C88.5449 34.027 88.6201 34.5625 88.7705 34.918V35H87.8955ZM85.3252 34.4121C85.8721 34.4121 86.3597 34.2799 86.7881 34.0156C87.221 33.7513 87.5355 33.3981 87.7314 32.9561V31.3291H86.2686C85.4528 31.3382 84.8148 31.4886 84.3545 31.7803C83.8942 32.0674 83.6641 32.4639 83.6641 32.9697C83.6641 33.3844 83.8167 33.7285 84.1221 34.002C84.432 34.2754 84.833 34.4121 85.3252 34.4121ZM91.5117 27.6035L91.5391 28.8682C91.8171 28.4124 92.1634 28.0661 92.5781 27.8291C92.9928 27.5876 93.4508 27.4668 93.9521 27.4668C94.7451 27.4668 95.3353 27.6901 95.7227 28.1367C96.11 28.5833 96.306 29.2533 96.3105 30.1465V35H95.4971V30.1396C95.4925 29.4788 95.3512 28.9867 95.0732 28.6631C94.7998 28.3395 94.36 28.1777 93.7539 28.1777C93.248 28.1777 92.7992 28.3372 92.4072 28.6562C92.0199 28.9707 91.7327 29.3968 91.5459 29.9346V35H90.7324V27.6035H91.5117ZM101.164 34.4463C101.734 34.4463 102.21 34.2868 102.593 33.9678C102.98 33.6442 103.19 33.2272 103.222 32.7168H104.008C103.985 33.168 103.844 33.5804 103.584 33.9541C103.324 34.3232 102.978 34.6126 102.545 34.8223C102.117 35.0319 101.656 35.1367 101.164 35.1367C100.193 35.1367 99.4232 34.7995 98.8535 34.125C98.2884 33.4505 98.0059 32.5436 98.0059 31.4043V31.1582C98.0059 30.429 98.1335 29.7842 98.3887 29.2236C98.6439 28.6631 99.0085 28.2301 99.4824 27.9248C99.9609 27.6195 100.519 27.4668 101.157 27.4668C101.968 27.4668 102.636 27.7083 103.16 28.1914C103.689 28.6745 103.971 29.3102 104.008 30.0986H103.222C103.185 29.5199 102.976 29.0527 102.593 28.6973C102.215 28.3418 101.736 28.1641 101.157 28.1641C100.419 28.1641 99.8447 28.4307 99.4346 28.9639C99.029 29.4971 98.8262 30.2445 98.8262 31.2061V31.4453C98.8262 32.3887 99.029 33.1247 99.4346 33.6533C99.8447 34.182 100.421 34.4463 101.164 34.4463ZM101.39 35.0615L101.308 35.499C102.06 35.5947 102.436 35.9844 102.436 36.668C102.436 37.0872 102.256 37.4199 101.896 37.666C101.535 37.9121 101.046 38.0352 100.426 38.0352L100.378 37.502C100.784 37.502 101.114 37.4268 101.369 37.2764C101.629 37.1305 101.759 36.9323 101.759 36.6816C101.759 36.4173 101.659 36.235 101.458 36.1348C101.262 36.0345 100.961 35.9661 100.556 35.9297L100.754 35.0615H101.39ZM110.317 35C110.235 34.7676 110.183 34.4235 110.16 33.9678C109.873 34.3415 109.506 34.6309 109.06 34.8359C108.618 35.0365 108.148 35.1367 107.651 35.1367C106.94 35.1367 106.364 34.9385 105.922 34.542C105.484 34.1455 105.266 33.6442 105.266 33.0381C105.266 32.318 105.564 31.7484 106.161 31.3291C106.763 30.9098 107.599 30.7002 108.67 30.7002H110.153V29.8594C110.153 29.3307 109.989 28.916 109.661 28.6152C109.338 28.3099 108.864 28.1572 108.239 28.1572C107.67 28.1572 107.198 28.3031 106.824 28.5947C106.451 28.8864 106.264 29.2373 106.264 29.6475L105.443 29.6406C105.443 29.0527 105.717 28.5446 106.264 28.1162C106.811 27.6833 107.483 27.4668 108.28 27.4668C109.105 27.4668 109.755 27.6742 110.229 28.0889C110.707 28.499 110.953 29.0732 110.967 29.8115V33.3115C110.967 34.027 111.042 34.5625 111.192 34.918V35H110.317ZM107.747 34.4121C108.294 34.4121 108.782 34.2799 109.21 34.0156C109.643 33.7513 109.957 33.3981 110.153 32.9561V31.3291H108.69C107.875 31.3382 107.237 31.4886 106.776 31.7803C106.316 32.0674 106.086 32.4639 106.086 32.9697C106.086 33.3844 106.239 33.7285 106.544 34.002C106.854 34.2754 107.255 34.4121 107.747 34.4121ZM114.07 35H113.25V27.6035H114.07V35ZM113.106 25.4639C113.106 25.3089 113.157 25.179 113.257 25.0742C113.357 24.9648 113.494 24.9102 113.667 24.9102C113.84 24.9102 113.977 24.9648 114.077 25.0742C114.182 25.179 114.234 25.3089 114.234 25.4639C114.234 25.6188 114.182 25.7487 114.077 25.8535C113.977 25.9583 113.84 26.0107 113.667 26.0107C113.494 26.0107 113.357 25.9583 113.257 25.8535C113.157 25.7487 113.106 25.6188 113.106 25.4639ZM120.729 33.1201C120.729 32.7145 120.564 32.3887 120.236 32.1426C119.913 31.8965 119.423 31.7051 118.767 31.5684C118.11 31.4271 117.6 31.2676 117.235 31.0898C116.875 30.9076 116.606 30.6865 116.429 30.4268C116.256 30.167 116.169 29.8525 116.169 29.4834C116.169 28.9001 116.413 28.4193 116.9 28.041C117.388 27.6582 118.012 27.4668 118.773 27.4668C119.598 27.4668 120.259 27.6719 120.756 28.082C121.257 28.4876 121.508 29.0186 121.508 29.6748H120.688C120.688 29.2419 120.505 28.8818 120.141 28.5947C119.781 28.3076 119.325 28.1641 118.773 28.1641C118.236 28.1641 117.803 28.2848 117.475 28.5264C117.151 28.7633 116.989 29.0732 116.989 29.4561C116.989 29.8252 117.124 30.1123 117.393 30.3174C117.666 30.5179 118.16 30.7025 118.876 30.8711C119.596 31.0397 120.134 31.2197 120.489 31.4111C120.849 31.6025 121.116 31.8327 121.289 32.1016C121.462 32.3704 121.549 32.6963 121.549 33.0791C121.549 33.7035 121.296 34.2025 120.79 34.5762C120.289 34.9499 119.632 35.1367 118.821 35.1367C117.96 35.1367 117.26 34.9294 116.723 34.5146C116.189 34.0954 115.923 33.5667 115.923 32.9287H116.743C116.775 33.4072 116.976 33.7809 117.345 34.0498C117.718 34.3141 118.211 34.4463 118.821 34.4463C119.391 34.4463 119.851 34.321 120.202 34.0703C120.553 33.8197 120.729 33.5029 120.729 33.1201Z" fill="#3C425F"/>
<rect width="40" height="40" rx="20" fill="#F1F3FE"/>
<path d="M26.5205 28H22.7715V21.4688H17.2178V28H13.4473V12.3594H17.2178V18.5684H22.7715V12.3594H26.5205V28Z" fill="#B4BEF0"/>
</svg>
