<svg width="200" height="40" viewBox="0 0 200 40" fill="none" xmlns="http://www.w3.org/2000/svg">
<path d="M60.6338 15H59.7861V10.2285H54.0986V15H53.2578V5.04688H54.0986V9.51758H59.7861V5.04688H60.6338V15ZM65.8428 15.1367C65.2139 15.1367 64.6442 14.9818 64.1338 14.6719C63.6279 14.362 63.2337 13.9313 62.9512 13.3799C62.6686 12.8239 62.5273 12.2018 62.5273 11.5137V11.2197C62.5273 10.5088 62.6641 9.86849 62.9375 9.29883C63.2155 8.72917 63.6006 8.28255 64.0928 7.95898C64.585 7.63086 65.1182 7.4668 65.6924 7.4668C66.5902 7.4668 67.3011 7.77441 67.8252 8.38965C68.3538 9.00033 68.6182 9.83659 68.6182 10.8984V11.3564H63.3408V11.5137C63.3408 12.3522 63.5801 13.0518 64.0586 13.6123C64.5417 14.1683 65.1478 14.4463 65.877 14.4463C66.3145 14.4463 66.6995 14.3665 67.0322 14.207C67.3695 14.0475 67.6748 13.7923 67.9482 13.4414L68.4609 13.8311C67.8594 14.7015 66.9867 15.1367 65.8428 15.1367ZM65.6924 8.16406C65.0771 8.16406 64.5576 8.38965 64.1338 8.84082C63.7145 9.29199 63.4593 9.89811 63.3682 10.6592H67.8047V10.5703C67.7819 9.85938 67.5791 9.2806 67.1963 8.83398C66.8135 8.38737 66.3122 8.16406 65.6924 8.16406ZM69.7598 11.1924C69.7598 10.4814 69.8965 9.84115 70.1699 9.27148C70.4479 8.70182 70.8376 8.25977 71.3389 7.94531C71.8447 7.6263 72.4167 7.4668 73.0547 7.4668C74.0391 7.4668 74.8366 7.81315 75.4473 8.50586C76.0579 9.19401 76.3633 10.1077 76.3633 11.2471V11.418C76.3633 12.1335 76.2243 12.7783 75.9463 13.3525C75.6729 13.9222 75.2855 14.362 74.7842 14.6719C74.2829 14.9818 73.7109 15.1367 73.0684 15.1367C72.0885 15.1367 71.291 14.7926 70.6758 14.1045C70.0651 13.4118 69.7598 12.4958 69.7598 11.3564V11.1924ZM70.5801 11.418C70.5801 12.3021 70.8079 13.029 71.2637 13.5986C71.724 14.1637 72.3255 14.4463 73.0684 14.4463C73.8066 14.4463 74.4036 14.1637 74.8594 13.5986C75.3197 13.029 75.5498 12.2793 75.5498 11.3496V11.1924C75.5498 10.6273 75.445 10.11 75.2354 9.64062C75.0257 9.17122 74.7318 8.80892 74.3535 8.55371C73.9753 8.29395 73.5423 8.16406 73.0547 8.16406C72.3255 8.16406 71.7308 8.45117 71.2705 9.02539C70.8102 9.59505 70.5801 10.3424 70.5801 11.2676V11.418ZM83.7393 15H82.9189V8.30762H78.9336V15H78.1133V7.60352H83.7393V15ZM85.4824 11.1924C85.4824 10.4814 85.6191 9.84115 85.8926 9.27148C86.1706 8.70182 86.5602 8.25977 87.0615 7.94531C87.5674 7.6263 88.1393 7.4668 88.7773 7.4668C89.7617 7.4668 90.5592 7.81315 91.1699 8.50586C91.7806 9.19401 92.0859 10.1077 92.0859 11.2471V11.418C92.0859 12.1335 91.9469 12.7783 91.6689 13.3525C91.3955 13.9222 91.0081 14.362 90.5068 14.6719C90.0055 14.9818 89.4336 15.1367 88.791 15.1367C87.8112 15.1367 87.0137 14.7926 86.3984 14.1045C85.7878 13.4118 85.4824 12.4958 85.4824 11.3564V11.1924ZM86.3027 11.418C86.3027 12.3021 86.5306 13.029 86.9863 13.5986C87.4466 14.1637 88.0482 14.4463 88.791 14.4463C89.5293 14.4463 90.1263 14.1637 90.582 13.5986C91.0423 13.029 91.2725 12.2793 91.2725 11.3496V11.1924C91.2725 10.6273 91.1676 10.11 90.958 9.64062C90.7484 9.17122 90.4544 8.80892 90.0762 8.55371C89.6979 8.29395 89.265 8.16406 88.7773 8.16406C88.0482 8.16406 87.4535 8.45117 86.9932 9.02539C86.5329 9.59505 86.3027 10.3424 86.3027 11.2676V11.418ZM98.1152 9.55859C98.1152 9.11198 97.9489 8.7679 97.6162 8.52637C97.2835 8.28483 96.8255 8.16406 96.2422 8.16406C95.7135 8.16406 95.2601 8.30078 94.8818 8.57422C94.5081 8.8431 94.3213 9.1849 94.3213 9.59961H93.5078C93.5078 8.98438 93.7699 8.47624 94.2939 8.0752C94.8226 7.67415 95.472 7.47363 96.2422 7.47363C97.0898 7.47363 97.7507 7.65592 98.2246 8.02051C98.6986 8.38509 98.9355 8.90234 98.9355 9.57227C98.9355 9.92773 98.8262 10.249 98.6074 10.5361C98.3887 10.8232 98.0697 11.0465 97.6504 11.2061C98.5983 11.4658 99.0723 12.0537 99.0723 12.9697C99.0723 13.6351 98.8148 14.1615 98.2998 14.5488C97.7848 14.9362 97.1012 15.1299 96.249 15.1299C95.4242 15.1299 94.7406 14.9225 94.1982 14.5078C93.6559 14.0931 93.3848 13.5508 93.3848 12.8809H94.2051C94.2051 13.3275 94.401 13.7012 94.793 14.002C95.1895 14.2982 95.6748 14.4463 96.249 14.4463C96.8734 14.4463 97.361 14.3164 97.7119 14.0566C98.0674 13.7923 98.2451 13.4346 98.2451 12.9834C98.2451 12.4867 98.0833 12.1289 97.7598 11.9102C97.4362 11.6914 96.9417 11.582 96.2764 11.582H95.1484V10.8711H96.4131C97.5479 10.8438 98.1152 10.4062 98.1152 9.55859ZM106.558 15H105.737V11.6094H101.752V15H100.932V7.60352H101.752V10.9189H105.737V7.60352H106.558V15ZM113.421 15C113.339 14.7676 113.286 14.4235 113.264 13.9678C112.977 14.3415 112.61 14.6309 112.163 14.8359C111.721 15.0365 111.252 15.1367 110.755 15.1367C110.044 15.1367 109.467 14.9385 109.025 14.542C108.588 14.1455 108.369 13.6442 108.369 13.0381C108.369 12.318 108.668 11.7484 109.265 11.3291C109.866 10.9098 110.702 10.7002 111.773 10.7002H113.257V9.85938C113.257 9.33073 113.093 8.91602 112.765 8.61523C112.441 8.3099 111.967 8.15723 111.343 8.15723C110.773 8.15723 110.301 8.30306 109.928 8.59473C109.554 8.88639 109.367 9.2373 109.367 9.64746L108.547 9.64062C108.547 9.05273 108.82 8.5446 109.367 8.11621C109.914 7.68327 110.586 7.4668 111.384 7.4668C112.209 7.4668 112.858 7.67415 113.332 8.08887C113.811 8.49902 114.057 9.07324 114.07 9.81152V13.3115C114.07 14.027 114.146 14.5625 114.296 14.918V15H113.421ZM110.851 14.4121C111.397 14.4121 111.885 14.2799 112.313 14.0156C112.746 13.7513 113.061 13.3981 113.257 12.9561V11.3291H111.794C110.978 11.3382 110.34 11.4886 109.88 11.7803C109.42 12.0674 109.189 12.4639 109.189 12.9697C109.189 13.3844 109.342 13.7285 109.647 14.002C109.957 14.2754 110.358 14.4121 110.851 14.4121ZM121.938 15H121.118V11.6094H117.133V15H116.312V7.60352H117.133V10.9189H121.118V7.60352H121.938V15ZM129.813 15H128.993V11.6094H125.008V15H124.188V7.60352H125.008V10.9189H128.993V7.60352H129.813V15ZM132.91 10.29H135.043C135.59 10.29 136.068 10.3903 136.479 10.5908C136.893 10.7868 137.205 11.0602 137.415 11.4111C137.629 11.762 137.736 12.1699 137.736 12.6348C137.736 13.3503 137.49 13.9245 136.998 14.3574C136.51 14.7858 135.85 15 135.016 15H132.097V7.60352H132.91V10.29ZM132.91 10.9873V14.3096H135.029C135.617 14.3096 136.077 14.1615 136.41 13.8652C136.747 13.569 136.916 13.1634 136.916 12.6484C136.916 12.1562 136.752 11.7598 136.424 11.459C136.1 11.1536 135.656 10.9964 135.091 10.9873H132.91ZM140.245 15H139.425V7.60352H140.245V15ZM147.382 7.60352H148.202V15H147.382V8.92285L143.39 15H142.576V7.60352H143.39V13.6875L147.382 7.60352ZM147.341 4.9375C147.341 5.46159 147.161 5.88542 146.801 6.20898C146.445 6.53255 145.967 6.69434 145.365 6.69434C144.773 6.69434 144.294 6.53483 143.93 6.21582C143.57 5.89225 143.39 5.46615 143.39 4.9375H144.087C144.087 5.31576 144.199 5.60514 144.422 5.80566C144.65 6.00618 144.964 6.10645 145.365 6.10645C145.766 6.10645 146.078 6.00163 146.302 5.79199C146.53 5.58236 146.644 5.29753 146.644 4.9375H147.341ZM159.488 10.2285H154.833V14.2891H160.186V15H153.992V5.04688H160.151V5.76465H154.833V9.51758H159.488V10.2285ZM167.452 15H166.632V11.6094H162.646V15H161.826V7.60352H162.646V10.9189H166.632V7.60352H167.452V15ZM169.195 11.1924C169.195 10.4814 169.332 9.84115 169.605 9.27148C169.883 8.70182 170.273 8.25977 170.774 7.94531C171.28 7.6263 171.852 7.4668 172.49 7.4668C173.475 7.4668 174.272 7.81315 174.883 8.50586C175.493 9.19401 175.799 10.1077 175.799 11.2471V11.418C175.799 12.1335 175.66 12.7783 175.382 13.3525C175.108 13.9222 174.721 14.362 174.22 14.6719C173.718 14.9818 173.146 15.1367 172.504 15.1367C171.524 15.1367 170.727 14.7926 170.111 14.1045C169.501 13.4118 169.195 12.4958 169.195 11.3564V11.1924ZM170.016 11.418C170.016 12.3021 170.243 13.029 170.699 13.5986C171.16 14.1637 171.761 14.4463 172.504 14.4463C173.242 14.4463 173.839 14.1637 174.295 13.5986C174.755 13.029 174.985 12.2793 174.985 11.3496V11.1924C174.985 10.6273 174.881 10.11 174.671 9.64062C174.461 9.17122 174.167 8.80892 173.789 8.55371C173.411 8.29395 172.978 8.16406 172.49 8.16406C171.761 8.16406 171.166 8.45117 170.706 9.02539C170.246 9.59505 170.016 10.3424 170.016 11.2676V11.418ZM182.655 8.30078H179.962V15H179.142V8.30078H176.551V7.60352H182.655V8.30078ZM192.301 11.7939H193.853V12.4844H192.301V15H191.48V12.4844H186.798V12.0195L191.405 5.04688H192.301V11.7939ZM187.803 11.7939H191.48V6.10645L191.118 6.73535L187.803 11.7939Z" fill="#3C425F"/>
<path opacity="0.5" d="M58.7539 30.2285H54.0986V34.2891H59.4512V35H53.2578V25.0469H59.417V25.7646H54.0986V29.5176H58.7539V30.2285ZM61.8164 27.6035L61.8438 28.8682C62.1217 28.4124 62.4681 28.0661 62.8828 27.8291C63.2975 27.5876 63.7555 27.4668 64.2568 27.4668C65.0498 27.4668 65.64 27.6901 66.0273 28.1367C66.4147 28.5833 66.6107 29.2533 66.6152 30.1465V35H65.8018V30.1396C65.7972 29.4788 65.6559 28.9867 65.3779 28.6631C65.1045 28.3395 64.6647 28.1777 64.0586 28.1777C63.5527 28.1777 63.1038 28.3372 62.7119 28.6562C62.3245 28.9707 62.0374 29.3968 61.8506 29.9346V35H61.0371V27.6035H61.8164ZM68.4062 31.2334C68.4062 30.0758 68.6615 29.1598 69.1719 28.4854C69.6868 27.8063 70.3841 27.4668 71.2637 27.4668C72.2708 27.4668 73.0365 27.8678 73.5605 28.6699L73.6016 27.6035H74.3672V34.8496C74.3672 35.8021 74.1006 36.5563 73.5674 37.1123C73.0342 37.6683 72.3118 37.9463 71.4004 37.9463C70.8854 37.9463 70.3932 37.8301 69.9238 37.5977C69.459 37.3698 69.0921 37.0645 68.8232 36.6816L69.2812 36.1895C69.86 36.9004 70.5482 37.2559 71.3457 37.2559C72.0293 37.2559 72.5625 37.0531 72.9453 36.6475C73.3281 36.2464 73.5264 35.6882 73.54 34.9727V34.043C73.016 34.7721 72.2526 35.1367 71.25 35.1367C70.3932 35.1367 69.7051 34.7949 69.1855 34.1113C68.666 33.4277 68.4062 32.5049 68.4062 31.3428V31.2334ZM69.2334 31.377C69.2334 32.3203 69.4225 33.0654 69.8008 33.6123C70.179 34.1546 70.7122 34.4258 71.4004 34.4258C72.4076 34.4258 73.1208 33.9746 73.54 33.0723V29.6338C73.3486 29.1598 73.0729 28.7998 72.7129 28.5537C72.3529 28.3031 71.9199 28.1777 71.4141 28.1777C70.7259 28.1777 70.1904 28.4489 69.8076 28.9912C69.4248 29.529 69.2334 30.3242 69.2334 31.377ZM77.416 35H76.5957V24.5H77.416V35ZM80.5605 35H79.7402V27.6035H80.5605V35ZM79.5967 25.4639C79.5967 25.3089 79.6468 25.179 79.7471 25.0742C79.8473 24.9648 79.984 24.9102 80.1572 24.9102C80.3304 24.9102 80.4671 24.9648 80.5674 25.0742C80.6722 25.179 80.7246 25.3089 80.7246 25.4639C80.7246 25.6188 80.6722 25.7487 80.5674 25.8535C80.4671 25.9583 80.3304 26.0107 80.1572 26.0107C79.984 26.0107 79.8473 25.9583 79.7471 25.8535C79.6468 25.7487 79.5967 25.6188 79.5967 25.4639ZM87.2188 33.1201C87.2188 32.7145 87.0547 32.3887 86.7266 32.1426C86.403 31.8965 85.9131 31.7051 85.2568 31.5684C84.6006 31.4271 84.0902 31.2676 83.7256 31.0898C83.3656 30.9076 83.0967 30.6865 82.9189 30.4268C82.7458 30.167 82.6592 29.8525 82.6592 29.4834C82.6592 28.9001 82.903 28.4193 83.3906 28.041C83.8783 27.6582 84.5026 27.4668 85.2637 27.4668C86.0885 27.4668 86.7493 27.6719 87.2461 28.082C87.7474 28.4876 87.998 29.0186 87.998 29.6748H87.1777C87.1777 29.2419 86.9954 28.8818 86.6309 28.5947C86.2708 28.3076 85.8151 28.1641 85.2637 28.1641C84.7259 28.1641 84.293 28.2848 83.9648 28.5264C83.6413 28.7633 83.4795 29.0732 83.4795 29.4561C83.4795 29.8252 83.6139 30.1123 83.8828 30.3174C84.1562 30.5179 84.6507 30.7025 85.3662 30.8711C86.0863 31.0397 86.624 31.2197 86.9795 31.4111C87.3395 31.6025 87.6061 31.8327 87.7793 32.1016C87.9525 32.3704 88.0391 32.6963 88.0391 33.0791C88.0391 33.7035 87.7861 34.2025 87.2803 34.5762C86.779 34.9499 86.1227 35.1367 85.3115 35.1367C84.4502 35.1367 83.7507 34.9294 83.2129 34.5146C82.6797 34.0954 82.4131 33.5667 82.4131 32.9287H83.2334C83.2653 33.4072 83.4658 33.7809 83.835 34.0498C84.2087 34.3141 84.7008 34.4463 85.3115 34.4463C85.8812 34.4463 86.3415 34.321 86.6924 34.0703C87.0433 33.8197 87.2188 33.5029 87.2188 33.1201ZM90.6982 28.8545C90.9671 28.4124 91.3112 28.0706 91.7305 27.8291C92.1497 27.5876 92.6077 27.4668 93.1045 27.4668C93.8975 27.4668 94.4876 27.6901 94.875 28.1367C95.2624 28.5833 95.4583 29.2533 95.4629 30.1465V35H94.6494V30.1396C94.6449 29.4788 94.5036 28.9867 94.2256 28.6631C93.9521 28.3395 93.5124 28.1777 92.9062 28.1777C92.4004 28.1777 91.9515 28.3372 91.5596 28.6562C91.1722 28.9707 90.8851 29.3968 90.6982 29.9346V35H89.8848V24.5H90.6982V28.8545ZM101.164 35V25.0469H104.104C105.17 25.0469 105.979 25.2679 106.53 25.71C107.082 26.1475 107.357 26.7946 107.357 27.6514C107.357 28.1663 107.216 28.6152 106.934 28.998C106.656 29.3763 106.273 29.6475 105.785 29.8115C106.364 29.9391 106.829 30.224 107.18 30.666C107.535 31.1081 107.713 31.6185 107.713 32.1973C107.713 33.0768 107.428 33.765 106.858 34.2617C106.293 34.7539 105.505 35 104.493 35H101.164ZM102.005 30.2148V34.2891H104.527C105.247 34.2891 105.817 34.1068 106.236 33.7422C106.66 33.373 106.872 32.8626 106.872 32.2109C106.872 31.5957 106.669 31.1104 106.264 30.7549C105.863 30.3949 105.307 30.2148 104.596 30.2148H102.005ZM102.005 29.5107H104.302C105.004 29.4971 105.546 29.333 105.929 29.0186C106.316 28.6995 106.51 28.237 106.51 27.6309C106.51 26.9928 106.309 26.5234 105.908 26.2227C105.512 25.9173 104.91 25.7646 104.104 25.7646H102.005V29.5107ZM115.663 35H109.429V34.3711L112.84 30.502C113.405 29.8503 113.797 29.3125 114.016 28.8887C114.234 28.4648 114.344 28.0524 114.344 27.6514C114.344 27.0225 114.159 26.5257 113.79 26.1611C113.421 25.792 112.913 25.6074 112.266 25.6074C111.596 25.6074 111.053 25.8216 110.639 26.25C110.229 26.6784 110.023 27.2344 110.023 27.918H109.21C109.21 27.3574 109.335 26.847 109.586 26.3867C109.841 25.9264 110.201 25.5664 110.666 25.3066C111.135 25.0423 111.669 24.9102 112.266 24.9102C113.177 24.9102 113.888 25.1494 114.398 25.6279C114.913 26.1064 115.171 26.7581 115.171 27.583C115.171 28.0479 115.025 28.556 114.733 29.1074C114.446 29.6589 113.938 30.347 113.209 31.1719L110.434 34.3096H115.663V35Z" fill="#3C425F"/>
<rect width="40" height="40" rx="20" fill="#F1F3FE"/>
<path d="M26.5205 28H22.7715V21.4688H17.2178V28H13.4473V12.3594H17.2178V18.5684H22.7715V12.3594H26.5205V28Z" fill="#B4BEF0"/>
<rect x="1" y="1" width="10" height="10" rx="5" fill="#0BC4CF" stroke="white" stroke-width="2"/>
</svg>
