<svg width="200" height="40" viewBox="0 0 200 40" fill="none" xmlns="http://www.w3.org/2000/svg">
<path d="M60.6338 15H59.7861V10.2285H54.0986V15H53.2578V5.04688H54.0986V9.51758H59.7861V5.04688H60.6338V15ZM65.8428 15.1367C65.2139 15.1367 64.6442 14.9818 64.1338 14.6719C63.6279 14.362 63.2337 13.9313 62.9512 13.3799C62.6686 12.8239 62.5273 12.2018 62.5273 11.5137V11.2197C62.5273 10.5088 62.6641 9.86849 62.9375 9.29883C63.2155 8.72917 63.6006 8.28255 64.0928 7.95898C64.585 7.63086 65.1182 7.4668 65.6924 7.4668C66.5902 7.4668 67.3011 7.77441 67.8252 8.38965C68.3538 9.00033 68.6182 9.83659 68.6182 10.8984V11.3564H63.3408V11.5137C63.3408 12.3522 63.5801 13.0518 64.0586 13.6123C64.5417 14.1683 65.1478 14.4463 65.877 14.4463C66.3145 14.4463 66.6995 14.3665 67.0322 14.207C67.3695 14.0475 67.6748 13.7923 67.9482 13.4414L68.4609 13.8311C67.8594 14.7015 66.9867 15.1367 65.8428 15.1367ZM65.6924 8.16406C65.0771 8.16406 64.5576 8.38965 64.1338 8.84082C63.7145 9.29199 63.4593 9.89811 63.3682 10.6592H67.8047V10.5703C67.7819 9.85938 67.5791 9.2806 67.1963 8.83398C66.8135 8.38737 66.3122 8.16406 65.6924 8.16406ZM69.7598 11.1924C69.7598 10.4814 69.8965 9.84115 70.1699 9.27148C70.4479 8.70182 70.8376 8.25977 71.3389 7.94531C71.8447 7.6263 72.4167 7.4668 73.0547 7.4668C74.0391 7.4668 74.8366 7.81315 75.4473 8.50586C76.0579 9.19401 76.3633 10.1077 76.3633 11.2471V11.418C76.3633 12.1335 76.2243 12.7783 75.9463 13.3525C75.6729 13.9222 75.2855 14.362 74.7842 14.6719C74.2829 14.9818 73.7109 15.1367 73.0684 15.1367C72.0885 15.1367 71.291 14.7926 70.6758 14.1045C70.0651 13.4118 69.7598 12.4958 69.7598 11.3564V11.1924ZM70.5801 11.418C70.5801 12.3021 70.8079 13.029 71.2637 13.5986C71.724 14.1637 72.3255 14.4463 73.0684 14.4463C73.8066 14.4463 74.4036 14.1637 74.8594 13.5986C75.3197 13.029 75.5498 12.2793 75.5498 11.3496V11.1924C75.5498 10.6273 75.445 10.11 75.2354 9.64062C75.0257 9.17122 74.7318 8.80892 74.3535 8.55371C73.9753 8.29395 73.5423 8.16406 73.0547 8.16406C72.3255 8.16406 71.7308 8.45117 71.2705 9.02539C70.8102 9.59505 70.5801 10.3424 70.5801 11.2676V11.418ZM83.7393 15H82.9189V8.30762H78.9336V15H78.1133V7.60352H83.7393V15ZM85.4824 11.1924C85.4824 10.4814 85.6191 9.84115 85.8926 9.27148C86.1706 8.70182 86.5602 8.25977 87.0615 7.94531C87.5674 7.6263 88.1393 7.4668 88.7773 7.4668C89.7617 7.4668 90.5592 7.81315 91.1699 8.50586C91.7806 9.19401 92.0859 10.1077 92.0859 11.2471V11.418C92.0859 12.1335 91.9469 12.7783 91.6689 13.3525C91.3955 13.9222 91.0081 14.362 90.5068 14.6719C90.0055 14.9818 89.4336 15.1367 88.791 15.1367C87.8112 15.1367 87.0137 14.7926 86.3984 14.1045C85.7878 13.4118 85.4824 12.4958 85.4824 11.3564V11.1924ZM86.3027 11.418C86.3027 12.3021 86.5306 13.029 86.9863 13.5986C87.4466 14.1637 88.0482 14.4463 88.791 14.4463C89.5293 14.4463 90.1263 14.1637 90.582 13.5986C91.0423 13.029 91.2725 12.2793 91.2725 11.3496V11.1924C91.2725 10.6273 91.1676 10.11 90.958 9.64062C90.7484 9.17122 90.4544 8.80892 90.0762 8.55371C89.6979 8.29395 89.265 8.16406 88.7773 8.16406C88.0482 8.16406 87.4535 8.45117 86.9932 9.02539C86.5329 9.59505 86.3027 10.3424 86.3027 11.2676V11.418ZM98.1152 9.55859C98.1152 9.11198 97.9489 8.7679 97.6162 8.52637C97.2835 8.28483 96.8255 8.16406 96.2422 8.16406C95.7135 8.16406 95.2601 8.30078 94.8818 8.57422C94.5081 8.8431 94.3213 9.1849 94.3213 9.59961H93.5078C93.5078 8.98438 93.7699 8.47624 94.2939 8.0752C94.8226 7.67415 95.472 7.47363 96.2422 7.47363C97.0898 7.47363 97.7507 7.65592 98.2246 8.02051C98.6986 8.38509 98.9355 8.90234 98.9355 9.57227C98.9355 9.92773 98.8262 10.249 98.6074 10.5361C98.3887 10.8232 98.0697 11.0465 97.6504 11.2061C98.5983 11.4658 99.0723 12.0537 99.0723 12.9697C99.0723 13.6351 98.8148 14.1615 98.2998 14.5488C97.7848 14.9362 97.1012 15.1299 96.249 15.1299C95.4242 15.1299 94.7406 14.9225 94.1982 14.5078C93.6559 14.0931 93.3848 13.5508 93.3848 12.8809H94.2051C94.2051 13.3275 94.401 13.7012 94.793 14.002C95.1895 14.2982 95.6748 14.4463 96.249 14.4463C96.8734 14.4463 97.361 14.3164 97.7119 14.0566C98.0674 13.7923 98.2451 13.4346 98.2451 12.9834C98.2451 12.4867 98.0833 12.1289 97.7598 11.9102C97.4362 11.6914 96.9417 11.582 96.2764 11.582H95.1484V10.8711H96.4131C97.5479 10.8438 98.1152 10.4062 98.1152 9.55859ZM106.558 15H105.737V11.6094H101.752V15H100.932V7.60352H101.752V10.9189H105.737V7.60352H106.558V15ZM113.421 15C113.339 14.7676 113.286 14.4235 113.264 13.9678C112.977 14.3415 112.61 14.6309 112.163 14.8359C111.721 15.0365 111.252 15.1367 110.755 15.1367C110.044 15.1367 109.467 14.9385 109.025 14.542C108.588 14.1455 108.369 13.6442 108.369 13.0381C108.369 12.318 108.668 11.7484 109.265 11.3291C109.866 10.9098 110.702 10.7002 111.773 10.7002H113.257V9.85938C113.257 9.33073 113.093 8.91602 112.765 8.61523C112.441 8.3099 111.967 8.15723 111.343 8.15723C110.773 8.15723 110.301 8.30306 109.928 8.59473C109.554 8.88639 109.367 9.2373 109.367 9.64746L108.547 9.64062C108.547 9.05273 108.82 8.5446 109.367 8.11621C109.914 7.68327 110.586 7.4668 111.384 7.4668C112.209 7.4668 112.858 7.67415 113.332 8.08887C113.811 8.49902 114.057 9.07324 114.07 9.81152V13.3115C114.07 14.027 114.146 14.5625 114.296 14.918V15H113.421ZM110.851 14.4121C111.397 14.4121 111.885 14.2799 112.313 14.0156C112.746 13.7513 113.061 13.3981 113.257 12.9561V11.3291H111.794C110.978 11.3382 110.34 11.4886 109.88 11.7803C109.42 12.0674 109.189 12.4639 109.189 12.9697C109.189 13.3844 109.342 13.7285 109.647 14.002C109.957 14.2754 110.358 14.4121 110.851 14.4121ZM121.938 15H121.118V11.6094H117.133V15H116.312V7.60352H117.133V10.9189H121.118V7.60352H121.938V15ZM129.813 15H128.993V11.6094H125.008V15H124.188V7.60352H125.008V10.9189H128.993V7.60352H129.813V15ZM132.91 10.29H135.043C135.59 10.29 136.068 10.3903 136.479 10.5908C136.893 10.7868 137.205 11.0602 137.415 11.4111C137.629 11.762 137.736 12.1699 137.736 12.6348C137.736 13.3503 137.49 13.9245 136.998 14.3574C136.51 14.7858 135.85 15 135.016 15H132.097V7.60352H132.91V10.29ZM132.91 10.9873V14.3096H135.029C135.617 14.3096 136.077 14.1615 136.41 13.8652C136.747 13.569 136.916 13.1634 136.916 12.6484C136.916 12.1562 136.752 11.7598 136.424 11.459C136.1 11.1536 135.656 10.9964 135.091 10.9873H132.91ZM140.245 15H139.425V7.60352H140.245V15ZM147.382 7.60352H148.202V15H147.382V8.92285L143.39 15H142.576V7.60352H143.39V13.6875L147.382 7.60352ZM147.341 4.9375C147.341 5.46159 147.161 5.88542 146.801 6.20898C146.445 6.53255 145.967 6.69434 145.365 6.69434C144.773 6.69434 144.294 6.53483 143.93 6.21582C143.57 5.89225 143.39 5.46615 143.39 4.9375H144.087C144.087 5.31576 144.199 5.60514 144.422 5.80566C144.65 6.00618 144.964 6.10645 145.365 6.10645C145.766 6.10645 146.078 6.00163 146.302 5.79199C146.53 5.58236 146.644 5.29753 146.644 4.9375H147.341ZM159.488 10.2285H154.833V14.2891H160.186V15H153.992V5.04688H160.151V5.76465H154.833V9.51758H159.488V10.2285ZM167.452 15H166.632V11.6094H162.646V15H161.826V7.60352H162.646V10.9189H166.632V7.60352H167.452V15ZM169.195 11.1924C169.195 10.4814 169.332 9.84115 169.605 9.27148C169.883 8.70182 170.273 8.25977 170.774 7.94531C171.28 7.6263 171.852 7.4668 172.49 7.4668C173.475 7.4668 174.272 7.81315 174.883 8.50586C175.493 9.19401 175.799 10.1077 175.799 11.2471V11.418C175.799 12.1335 175.66 12.7783 175.382 13.3525C175.108 13.9222 174.721 14.362 174.22 14.6719C173.718 14.9818 173.146 15.1367 172.504 15.1367C171.524 15.1367 170.727 14.7926 170.111 14.1045C169.501 13.4118 169.195 12.4958 169.195 11.3564V11.1924ZM170.016 11.418C170.016 12.3021 170.243 13.029 170.699 13.5986C171.16 14.1637 171.761 14.4463 172.504 14.4463C173.242 14.4463 173.839 14.1637 174.295 13.5986C174.755 13.029 174.985 12.2793 174.985 11.3496V11.1924C174.985 10.6273 174.881 10.11 174.671 9.64062C174.461 9.17122 174.167 8.80892 173.789 8.55371C173.411 8.29395 172.978 8.16406 172.49 8.16406C171.761 8.16406 171.166 8.45117 170.706 9.02539C170.246 9.59505 170.016 10.3424 170.016 11.2676V11.418ZM182.655 8.30078H179.962V15H179.142V8.30078H176.551V7.60352H182.655V8.30078ZM192.103 4.97168V5.68945H192.007C190.817 5.68945 189.881 6.04036 189.197 6.74219C188.514 7.43945 188.135 8.41016 188.062 9.6543C188.336 9.27604 188.685 8.98438 189.108 8.7793C189.532 8.56966 190.006 8.46484 190.53 8.46484C191.405 8.46484 192.1 8.7679 192.615 9.37402C193.135 9.97559 193.395 10.764 193.395 11.7393C193.395 12.3864 193.274 12.9697 193.032 13.4893C192.791 14.0088 192.444 14.4144 191.993 14.7061C191.542 14.9932 191.027 15.1367 190.448 15.1367C189.496 15.1367 188.721 14.7926 188.124 14.1045C187.527 13.4118 187.229 12.5186 187.229 11.4248V10.6045C187.229 8.82259 187.634 7.44401 188.445 6.46875C189.257 5.48893 190.407 4.98991 191.897 4.97168H192.103ZM190.4 9.16895C189.881 9.16895 189.396 9.32389 188.944 9.63379C188.498 9.93913 188.199 10.3288 188.049 10.8027V11.5C188.049 12.3659 188.27 13.0723 188.712 13.6191C189.159 14.166 189.737 14.4395 190.448 14.4395C191.086 14.4395 191.601 14.1865 191.993 13.6807C192.39 13.1748 192.588 12.5368 192.588 11.7666C192.588 10.9827 192.39 10.3538 191.993 9.87988C191.601 9.40592 191.07 9.16895 190.4 9.16895Z" fill="#3C425F"/>
<path opacity="0.5" d="M58.7539 30.2285H54.0986V34.2891H59.4512V35H53.2578V25.0469H59.417V25.7646H54.0986V29.5176H58.7539V30.2285ZM65.4668 33.1201C65.4668 32.7145 65.3027 32.3887 64.9746 32.1426C64.651 31.8965 64.1611 31.7051 63.5049 31.5684C62.8486 31.4271 62.3382 31.2676 61.9736 31.0898C61.6136 30.9076 61.3447 30.6865 61.167 30.4268C60.9938 30.167 60.9072 29.8525 60.9072 29.4834C60.9072 28.9001 61.151 28.4193 61.6387 28.041C62.1263 27.6582 62.7507 27.4668 63.5117 27.4668C64.3366 27.4668 64.9974 27.6719 65.4941 28.082C65.9954 28.4876 66.2461 29.0186 66.2461 29.6748H65.4258C65.4258 29.2419 65.2435 28.8818 64.8789 28.5947C64.5189 28.3076 64.0632 28.1641 63.5117 28.1641C62.974 28.1641 62.541 28.2848 62.2129 28.5264C61.8893 28.7633 61.7275 29.0732 61.7275 29.4561C61.7275 29.8252 61.862 30.1123 62.1309 30.3174C62.4043 30.5179 62.8988 30.7025 63.6143 30.8711C64.3343 31.0397 64.8721 31.2197 65.2275 31.4111C65.5876 31.6025 65.8542 31.8327 66.0273 32.1016C66.2005 32.3704 66.2871 32.6963 66.2871 33.0791C66.2871 33.7035 66.0342 34.2025 65.5283 34.5762C65.027 34.9499 64.3708 35.1367 63.5596 35.1367C62.6982 35.1367 61.9987 34.9294 61.4609 34.5146C60.9277 34.0954 60.6611 33.5667 60.6611 32.9287H61.4814C61.5133 33.4072 61.7139 33.7809 62.083 34.0498C62.4567 34.3141 62.9489 34.4463 63.5596 34.4463C64.1292 34.4463 64.5895 34.321 64.9404 34.0703C65.2913 33.8197 65.4668 33.5029 65.4668 33.1201ZM74.0801 31.377C74.0801 32.5299 73.8249 33.446 73.3145 34.125C72.804 34.7995 72.1204 35.1367 71.2637 35.1367C70.252 35.1367 69.4772 34.7812 68.9395 34.0703V37.8438H68.126V27.6035H68.8848L68.9258 28.6494C69.459 27.861 70.2314 27.4668 71.2432 27.4668C72.1273 27.4668 72.82 27.8018 73.3213 28.4717C73.8271 29.1416 74.0801 30.0713 74.0801 31.2607V31.377ZM73.2598 31.2334C73.2598 30.29 73.0661 29.5449 72.6787 28.998C72.2913 28.4512 71.7513 28.1777 71.0586 28.1777C70.5573 28.1777 70.1266 28.2985 69.7666 28.54C69.4066 28.7816 69.1309 29.1325 68.9395 29.5928V33.1406C69.1354 33.5645 69.4157 33.888 69.7803 34.1113C70.1449 34.3346 70.5755 34.4463 71.0723 34.4463C71.7604 34.4463 72.2959 34.1729 72.6787 33.626C73.0661 33.0745 73.2598 32.277 73.2598 31.2334ZM80.5674 35C80.4854 34.7676 80.4329 34.4235 80.4102 33.9678C80.123 34.3415 79.7562 34.6309 79.3096 34.8359C78.8675 35.0365 78.3981 35.1367 77.9014 35.1367C77.1904 35.1367 76.6139 34.9385 76.1719 34.542C75.7344 34.1455 75.5156 33.6442 75.5156 33.0381C75.5156 32.318 75.8141 31.7484 76.4111 31.3291C77.0127 30.9098 77.849 30.7002 78.9199 30.7002H80.4033V29.8594C80.4033 29.3307 80.2393 28.916 79.9111 28.6152C79.5876 28.3099 79.1136 28.1572 78.4893 28.1572C77.9196 28.1572 77.4479 28.3031 77.0742 28.5947C76.7005 28.8864 76.5137 29.2373 76.5137 29.6475L75.6934 29.6406C75.6934 29.0527 75.9668 28.5446 76.5137 28.1162C77.0605 27.6833 77.7327 27.4668 78.5303 27.4668C79.3551 27.4668 80.0046 27.6742 80.4785 28.0889C80.957 28.499 81.2031 29.0732 81.2168 29.8115V33.3115C81.2168 34.027 81.292 34.5625 81.4424 34.918V35H80.5674ZM77.9971 34.4121C78.5439 34.4121 79.0316 34.2799 79.46 34.0156C79.8929 33.7513 80.2074 33.3981 80.4033 32.9561V31.3291H78.9404C78.1247 31.3382 77.4867 31.4886 77.0264 31.7803C76.5661 32.0674 76.3359 32.4639 76.3359 32.9697C76.3359 33.3844 76.4886 33.7285 76.7939 34.002C77.1038 34.2754 77.5049 34.4121 77.9971 34.4121ZM84.1836 27.6035L84.2109 28.8682C84.4889 28.4124 84.8353 28.0661 85.25 27.8291C85.6647 27.5876 86.1227 27.4668 86.624 27.4668C87.417 27.4668 88.0072 27.6901 88.3945 28.1367C88.7819 28.5833 88.9779 29.2533 88.9824 30.1465V35H88.1689V30.1396C88.1644 29.4788 88.0231 28.9867 87.7451 28.6631C87.4717 28.3395 87.0319 28.1777 86.4258 28.1777C85.9199 28.1777 85.471 28.3372 85.0791 28.6562C84.6917 28.9707 84.4046 29.3968 84.2178 29.9346V35H83.4043V27.6035H84.1836ZM88.5996 24.7939C88.5996 25.2314 88.4697 25.5846 88.21 25.8535C87.9548 26.1178 87.6403 26.25 87.2666 26.25C86.9202 26.25 86.5807 26.1247 86.248 25.874C85.9199 25.6234 85.626 25.498 85.3662 25.498C85.152 25.498 84.972 25.5687 84.8262 25.71C84.6849 25.8512 84.6143 26.0495 84.6143 26.3047L83.999 26.2842C83.999 25.8649 84.1221 25.5186 84.3682 25.2451C84.6188 24.9717 84.9401 24.835 85.332 24.835C85.5508 24.835 85.7376 24.8737 85.8926 24.9512C86.0475 25.0286 86.1934 25.1152 86.3301 25.2109C86.4668 25.3066 86.6035 25.3932 86.7402 25.4707C86.8815 25.5482 87.0456 25.5869 87.2324 25.5869C87.4421 25.5869 87.6198 25.5117 87.7656 25.3613C87.916 25.2109 87.9912 25.0081 87.9912 24.7529L88.5996 24.7939ZM90.6504 31.1924C90.6504 30.4814 90.7871 29.8411 91.0605 29.2715C91.3385 28.7018 91.7282 28.2598 92.2295 27.9453C92.7354 27.6263 93.3073 27.4668 93.9453 27.4668C94.9297 27.4668 95.7272 27.8132 96.3379 28.5059C96.9486 29.194 97.2539 30.1077 97.2539 31.2471V31.418C97.2539 32.1335 97.1149 32.7783 96.8369 33.3525C96.5635 33.9222 96.1761 34.362 95.6748 34.6719C95.1735 34.9818 94.6016 35.1367 93.959 35.1367C92.9792 35.1367 92.1816 34.7926 91.5664 34.1045C90.9557 33.4118 90.6504 32.4958 90.6504 31.3564V31.1924ZM91.4707 31.418C91.4707 32.3021 91.6986 33.029 92.1543 33.5986C92.6146 34.1637 93.2161 34.4463 93.959 34.4463C94.6973 34.4463 95.2943 34.1637 95.75 33.5986C96.2103 33.029 96.4404 32.2793 96.4404 31.3496V31.1924C96.4404 30.6273 96.3356 30.11 96.126 29.6406C95.9163 29.1712 95.6224 28.8089 95.2441 28.5537C94.8659 28.2939 94.4329 28.1641 93.9453 28.1641C93.2161 28.1641 92.6214 28.4512 92.1611 29.0254C91.7008 29.5951 91.4707 30.3424 91.4707 31.2676V31.418ZM99.8652 35H99.0449V24.5H99.8652V35ZM109.176 35H108.355V26.0312L105.648 27.0361V26.2705L109.039 25.0127H109.176V35Z" fill="#3C425F"/>
<rect width="40" height="40" rx="20" fill="#F1F3FE"/>
<path d="M26.5205 28H22.7715V21.4688H17.2178V28H13.4473V12.3594H17.2178V18.5684H22.7715V12.3594H26.5205V28Z" fill="#B4BEF0"/>
</svg>
