<svg width="200" height="40" viewBox="0 0 200 40" fill="none" xmlns="http://www.w3.org/2000/svg">
<path d="M60.6338 15H59.7861V10.2285H54.0986V15H53.2578V5.04688H54.0986V9.51758H59.7861V5.04688H60.6338V15ZM65.8428 15.1367C65.2139 15.1367 64.6442 14.9818 64.1338 14.6719C63.6279 14.362 63.2337 13.9313 62.9512 13.3799C62.6686 12.8239 62.5273 12.2018 62.5273 11.5137V11.2197C62.5273 10.5088 62.6641 9.86849 62.9375 9.29883C63.2155 8.72917 63.6006 8.28255 64.0928 7.95898C64.585 7.63086 65.1182 7.4668 65.6924 7.4668C66.5902 7.4668 67.3011 7.77441 67.8252 8.38965C68.3538 9.00033 68.6182 9.83659 68.6182 10.8984V11.3564H63.3408V11.5137C63.3408 12.3522 63.5801 13.0518 64.0586 13.6123C64.5417 14.1683 65.1478 14.4463 65.877 14.4463C66.3145 14.4463 66.6995 14.3665 67.0322 14.207C67.3695 14.0475 67.6748 13.7923 67.9482 13.4414L68.4609 13.8311C67.8594 14.7015 66.9867 15.1367 65.8428 15.1367ZM65.6924 8.16406C65.0771 8.16406 64.5576 8.38965 64.1338 8.84082C63.7145 9.29199 63.4593 9.89811 63.3682 10.6592H67.8047V10.5703C67.7819 9.85938 67.5791 9.2806 67.1963 8.83398C66.8135 8.38737 66.3122 8.16406 65.6924 8.16406ZM69.7598 11.1924C69.7598 10.4814 69.8965 9.84115 70.1699 9.27148C70.4479 8.70182 70.8376 8.25977 71.3389 7.94531C71.8447 7.6263 72.4167 7.4668 73.0547 7.4668C74.0391 7.4668 74.8366 7.81315 75.4473 8.50586C76.0579 9.19401 76.3633 10.1077 76.3633 11.2471V11.418C76.3633 12.1335 76.2243 12.7783 75.9463 13.3525C75.6729 13.9222 75.2855 14.362 74.7842 14.6719C74.2829 14.9818 73.7109 15.1367 73.0684 15.1367C72.0885 15.1367 71.291 14.7926 70.6758 14.1045C70.0651 13.4118 69.7598 12.4958 69.7598 11.3564V11.1924ZM70.5801 11.418C70.5801 12.3021 70.8079 13.029 71.2637 13.5986C71.724 14.1637 72.3255 14.4463 73.0684 14.4463C73.8066 14.4463 74.4036 14.1637 74.8594 13.5986C75.3197 13.029 75.5498 12.2793 75.5498 11.3496V11.1924C75.5498 10.6273 75.445 10.11 75.2354 9.64062C75.0257 9.17122 74.7318 8.80892 74.3535 8.55371C73.9753 8.29395 73.5423 8.16406 73.0547 8.16406C72.3255 8.16406 71.7308 8.45117 71.2705 9.02539C70.8102 9.59505 70.5801 10.3424 70.5801 11.2676V11.418ZM83.7393 15H82.9189V8.30762H78.9336V15H78.1133V7.60352H83.7393V15ZM85.4824 11.1924C85.4824 10.4814 85.6191 9.84115 85.8926 9.27148C86.1706 8.70182 86.5602 8.25977 87.0615 7.94531C87.5674 7.6263 88.1393 7.4668 88.7773 7.4668C89.7617 7.4668 90.5592 7.81315 91.1699 8.50586C91.7806 9.19401 92.0859 10.1077 92.0859 11.2471V11.418C92.0859 12.1335 91.9469 12.7783 91.6689 13.3525C91.3955 13.9222 91.0081 14.362 90.5068 14.6719C90.0055 14.9818 89.4336 15.1367 88.791 15.1367C87.8112 15.1367 87.0137 14.7926 86.3984 14.1045C85.7878 13.4118 85.4824 12.4958 85.4824 11.3564V11.1924ZM86.3027 11.418C86.3027 12.3021 86.5306 13.029 86.9863 13.5986C87.4466 14.1637 88.0482 14.4463 88.791 14.4463C89.5293 14.4463 90.1263 14.1637 90.582 13.5986C91.0423 13.029 91.2725 12.2793 91.2725 11.3496V11.1924C91.2725 10.6273 91.1676 10.11 90.958 9.64062C90.7484 9.17122 90.4544 8.80892 90.0762 8.55371C89.6979 8.29395 89.265 8.16406 88.7773 8.16406C88.0482 8.16406 87.4535 8.45117 86.9932 9.02539C86.5329 9.59505 86.3027 10.3424 86.3027 11.2676V11.418ZM98.1152 9.55859C98.1152 9.11198 97.9489 8.7679 97.6162 8.52637C97.2835 8.28483 96.8255 8.16406 96.2422 8.16406C95.7135 8.16406 95.2601 8.30078 94.8818 8.57422C94.5081 8.8431 94.3213 9.1849 94.3213 9.59961H93.5078C93.5078 8.98438 93.7699 8.47624 94.2939 8.0752C94.8226 7.67415 95.472 7.47363 96.2422 7.47363C97.0898 7.47363 97.7507 7.65592 98.2246 8.02051C98.6986 8.38509 98.9355 8.90234 98.9355 9.57227C98.9355 9.92773 98.8262 10.249 98.6074 10.5361C98.3887 10.8232 98.0697 11.0465 97.6504 11.2061C98.5983 11.4658 99.0723 12.0537 99.0723 12.9697C99.0723 13.6351 98.8148 14.1615 98.2998 14.5488C97.7848 14.9362 97.1012 15.1299 96.249 15.1299C95.4242 15.1299 94.7406 14.9225 94.1982 14.5078C93.6559 14.0931 93.3848 13.5508 93.3848 12.8809H94.2051C94.2051 13.3275 94.401 13.7012 94.793 14.002C95.1895 14.2982 95.6748 14.4463 96.249 14.4463C96.8734 14.4463 97.361 14.3164 97.7119 14.0566C98.0674 13.7923 98.2451 13.4346 98.2451 12.9834C98.2451 12.4867 98.0833 12.1289 97.7598 11.9102C97.4362 11.6914 96.9417 11.582 96.2764 11.582H95.1484V10.8711H96.4131C97.5479 10.8438 98.1152 10.4062 98.1152 9.55859ZM106.558 15H105.737V11.6094H101.752V15H100.932V7.60352H101.752V10.9189H105.737V7.60352H106.558V15ZM113.421 15C113.339 14.7676 113.286 14.4235 113.264 13.9678C112.977 14.3415 112.61 14.6309 112.163 14.8359C111.721 15.0365 111.252 15.1367 110.755 15.1367C110.044 15.1367 109.467 14.9385 109.025 14.542C108.588 14.1455 108.369 13.6442 108.369 13.0381C108.369 12.318 108.668 11.7484 109.265 11.3291C109.866 10.9098 110.702 10.7002 111.773 10.7002H113.257V9.85938C113.257 9.33073 113.093 8.91602 112.765 8.61523C112.441 8.3099 111.967 8.15723 111.343 8.15723C110.773 8.15723 110.301 8.30306 109.928 8.59473C109.554 8.88639 109.367 9.2373 109.367 9.64746L108.547 9.64062C108.547 9.05273 108.82 8.5446 109.367 8.11621C109.914 7.68327 110.586 7.4668 111.384 7.4668C112.209 7.4668 112.858 7.67415 113.332 8.08887C113.811 8.49902 114.057 9.07324 114.07 9.81152V13.3115C114.07 14.027 114.146 14.5625 114.296 14.918V15H113.421ZM110.851 14.4121C111.397 14.4121 111.885 14.2799 112.313 14.0156C112.746 13.7513 113.061 13.3981 113.257 12.9561V11.3291H111.794C110.978 11.3382 110.34 11.4886 109.88 11.7803C109.42 12.0674 109.189 12.4639 109.189 12.9697C109.189 13.3844 109.342 13.7285 109.647 14.002C109.957 14.2754 110.358 14.4121 110.851 14.4121ZM121.938 15H121.118V11.6094H117.133V15H116.312V7.60352H117.133V10.9189H121.118V7.60352H121.938V15ZM129.813 15H128.993V11.6094H125.008V15H124.188V7.60352H125.008V10.9189H128.993V7.60352H129.813V15ZM132.91 10.29H135.043C135.59 10.29 136.068 10.3903 136.479 10.5908C136.893 10.7868 137.205 11.0602 137.415 11.4111C137.629 11.762 137.736 12.1699 137.736 12.6348C137.736 13.3503 137.49 13.9245 136.998 14.3574C136.51 14.7858 135.85 15 135.016 15H132.097V7.60352H132.91V10.29ZM132.91 10.9873V14.3096H135.029C135.617 14.3096 136.077 14.1615 136.41 13.8652C136.747 13.569 136.916 13.1634 136.916 12.6484C136.916 12.1562 136.752 11.7598 136.424 11.459C136.1 11.1536 135.656 10.9964 135.091 10.9873H132.91ZM140.245 15H139.425V7.60352H140.245V15ZM147.382 7.60352H148.202V15H147.382V8.92285L143.39 15H142.576V7.60352H143.39V13.6875L147.382 7.60352ZM147.341 4.9375C147.341 5.46159 147.161 5.88542 146.801 6.20898C146.445 6.53255 145.967 6.69434 145.365 6.69434C144.773 6.69434 144.294 6.53483 143.93 6.21582C143.57 5.89225 143.39 5.46615 143.39 4.9375H144.087C144.087 5.31576 144.199 5.60514 144.422 5.80566C144.65 6.00618 144.964 6.10645 145.365 6.10645C145.766 6.10645 146.078 6.00163 146.302 5.79199C146.53 5.58236 146.644 5.29753 146.644 4.9375H147.341ZM159.488 10.2285H154.833V14.2891H160.186V15H153.992V5.04688H160.151V5.76465H154.833V9.51758H159.488V10.2285ZM167.452 15H166.632V11.6094H162.646V15H161.826V7.60352H162.646V10.9189H166.632V7.60352H167.452V15ZM169.195 11.1924C169.195 10.4814 169.332 9.84115 169.605 9.27148C169.883 8.70182 170.273 8.25977 170.774 7.94531C171.28 7.6263 171.852 7.4668 172.49 7.4668C173.475 7.4668 174.272 7.81315 174.883 8.50586C175.493 9.19401 175.799 10.1077 175.799 11.2471V11.418C175.799 12.1335 175.66 12.7783 175.382 13.3525C175.108 13.9222 174.721 14.362 174.22 14.6719C173.718 14.9818 173.146 15.1367 172.504 15.1367C171.524 15.1367 170.727 14.7926 170.111 14.1045C169.501 13.4118 169.195 12.4958 169.195 11.3564V11.1924ZM170.016 11.418C170.016 12.3021 170.243 13.029 170.699 13.5986C171.16 14.1637 171.761 14.4463 172.504 14.4463C173.242 14.4463 173.839 14.1637 174.295 13.5986C174.755 13.029 174.985 12.2793 174.985 11.3496V11.1924C174.985 10.6273 174.881 10.11 174.671 9.64062C174.461 9.17122 174.167 8.80892 173.789 8.55371C173.411 8.29395 172.978 8.16406 172.49 8.16406C171.761 8.16406 171.166 8.45117 170.706 9.02539C170.246 9.59505 170.016 10.3424 170.016 11.2676V11.418ZM182.655 8.30078H179.962V15H179.142V8.30078H176.551V7.60352H182.655V8.30078ZM189.095 9.5791H189.942C190.412 9.5791 190.822 9.49707 191.173 9.33301C191.524 9.16439 191.79 8.93652 191.973 8.64941C192.16 8.35775 192.253 8.02279 192.253 7.64453C192.253 7.00651 192.073 6.50749 191.713 6.14746C191.353 5.78743 190.836 5.60742 190.161 5.60742C189.523 5.60742 188.999 5.79655 188.589 6.1748C188.183 6.5485 187.98 7.04297 187.98 7.6582H187.16C187.16 7.14323 187.29 6.67383 187.55 6.25C187.81 5.82161 188.17 5.49121 188.63 5.25879C189.09 5.02637 189.601 4.91016 190.161 4.91016C191.063 4.91016 191.774 5.15625 192.294 5.64844C192.813 6.14062 193.073 6.8151 193.073 7.67188C193.073 8.15039 192.921 8.59245 192.615 8.99805C192.314 9.39909 191.9 9.69987 191.371 9.90039C191.991 10.0736 192.46 10.3721 192.779 10.7959C193.098 11.2152 193.258 11.7165 193.258 12.2998C193.258 13.152 192.98 13.8379 192.424 14.3574C191.868 14.877 191.125 15.1367 190.195 15.1367C189.603 15.1367 189.058 15.0182 188.562 14.7812C188.069 14.5443 187.687 14.2139 187.413 13.79C187.144 13.3617 187.01 12.8649 187.01 12.2998H187.83C187.83 12.9333 188.051 13.4505 188.493 13.8516C188.935 14.248 189.503 14.4463 190.195 14.4463C190.902 14.4463 191.451 14.2663 191.843 13.9062C192.239 13.5417 192.438 13.0153 192.438 12.3271C192.438 11.6618 192.223 11.1536 191.795 10.8027C191.371 10.4518 190.744 10.2764 189.915 10.2764H189.095V9.5791Z" fill="#3C425F"/>
<path opacity="0.5" d="M55.57 33.978V30.072H62.514V33.978H55.57ZM62.514 25.27V29.05H55.57V25.27H62.514ZM54.52 24.248V35.91H55.57V35H62.514V35.854H63.606V24.248H54.52ZM79.076 27.258V26.222H73.532V23.296H72.454V26.222H66.952V27.258H71.81C70.634 29.652 68.604 31.92 66.476 33.026C66.714 33.222 67.064 33.614 67.218 33.866C69.276 32.676 71.166 30.562 72.454 28.14V32.424H69.724V33.46H72.454V36.064H73.532V33.46H76.192V32.424H73.532V28.14C74.792 30.562 76.668 32.69 78.782 33.852C78.936 33.558 79.3 33.152 79.552 32.942C77.354 31.878 75.338 29.652 74.176 27.258H79.076ZM85.152 23.772H81.33V24.612H85.152V23.772ZM84.312 32.228V34.566H82.128V32.228H84.312ZM85.222 31.374H81.218V36.05H82.128V35.42H85.222V31.374ZM81.246 30.296H85.166V29.47H81.246V30.296ZM85.166 27.566H81.246V28.392H85.166V27.566ZM80.588 26.488H85.642V25.634H80.588V26.488ZM91.578 32.004V34.482H87.686V32.004H91.578ZM86.706 36.064H87.686V35.42H91.578V36.008H92.586V31.08H86.706V36.064ZM91.214 27.048V29.078H88.526C88.652 28.49 88.778 27.79 88.904 27.048H91.214ZM92.208 29.078V26.152H89.058C89.142 25.662 89.226 25.172 89.296 24.71H92.992V23.8H86.118V24.71H88.274C88.204 25.172 88.134 25.662 88.05 26.152H86.328V27.048H87.91C87.784 27.776 87.644 28.49 87.518 29.078H85.698V30.002H93.44V29.078H92.208Z" fill="#3C425F"/>
<rect width="40" height="40" rx="20" fill="#F1F3FE"/>
<path d="M26.5205 28H22.7715V21.4688H17.2178V28H13.4473V12.3594H17.2178V18.5684H22.7715V12.3594H26.5205V28Z" fill="#B4BEF0"/>
<rect x="1" y="1" width="10" height="10" rx="5" fill="#0BC4CF" stroke="white" stroke-width="2"/>
</svg>
